<?xml version="1.0" encoding="UTF-8"?>
<svg version="1.1" xmlns="http://www.w3.org/2000/svg" width="4488" height="4464">
<path d="M0 0 C1481.04 0 2962.08 0 4488 0 C4488 1473.12 4488 2946.24 4488 4464 C3006.96 4464 1525.92 4464 0 4464 C0 2990.88 0 1517.76 0 0 Z " fill="#F5F5E6" transform="translate(0,0)"/>
<path d="M0 0 C1481.04 0 2962.08 0 4488 0 C4488 359.04 4488 718.08 4488 1088 C4469.61876978 1097.19061511 4469.61876978 1097.19061511 4462.83984375 1100.3046875 C4462.05898911 1100.66592209 4461.27813446 1101.02715668 4460.47361755 1101.39933777 C4457.96266012 1102.56025082 4455.45011117 1103.71767118 4452.9375 1104.875 C4451.13808294 1105.70608094 4449.33876871 1106.53738453 4447.53955078 1107.36889648 C4442.92412399 1109.50123286 4438.3073654 1111.63066871 4433.69024658 1113.75933838 C4429.46846958 1115.70629623 4425.24793038 1117.65593213 4421.02734375 1119.60546875 C4413.77276895 1122.95594387 4406.51707805 1126.30399328 4399.26081848 1129.65081787 C4391.15305054 1133.3904324 4383.04624113 1137.13212244 4374.93951416 1140.87399292 C4370.87638204 1142.74941369 4366.81318791 1144.62470011 4362.75 1146.5 C4361.1249997 1147.24999935 4359.4999997 1147.99999935 4357.875 1148.75 C4277.4375 1185.875 4197 1223 94.6877594 3116.37487793 C93.06189235 3117.12527967 91.43602769 3117.87568658 89.81016541 3118.62609863 C85.76095069 3120.49499424 81.71169531 3122.36380163 77.66235352 3124.23242188 C69.32475917 3128.08003305 60.98794473 3131.92932208 52.65234375 3135.78125 C43.79407524 3139.87447948 34.9334763 3143.96262778 26.07055664 3148.04577637 C24.11249068 3148.94815826 22.15482545 3149.85140358 20.19726562 3150.75488281 C17.02918022 3152.21563285 13.85890434 3153.67147323 10.6875 3155.125 C9.80441162 3155.53298828 8.92132324 3155.94097656 8.01147461 3156.36132812 C2.2307626 3159 2.2307626 3159 0 3159 C0 2116.53 0 1074.06 0 0 Z " fill="#181814" transform="translate(0,0)"/>
<path d="M0 0 C0 687.39 0 1374.78 0 2083 C-1391.28 2083 -2782.56 2083 -4216 2083 C-4213.72030606 2080.72030606 -4211.84311269 2079.93818909 -4208.8828125 2078.671875 C-4207.81514648 2078.209021 -4206.74748047 2077.74616699 -4205.64746094 2077.26928711 C-4203.90384277 2076.51723999 -4203.90384277 2076.51723999 -4202.125 2075.75 C-4191.11089243 2070.93224947 -4180.32376996 2065.79799105 -4169.60986328 2060.33691406 C-4162.66787107 2056.80478079 -4155.67688244 2053.40600976 -4148.640625 2050.06640625 C-4139.22600469 2045.58972165 -4129.88188564 2040.9830965 -4120.5625 2036.3125 C-4119.89119301 2035.97612078 -4119.21988602 2035.63974155 -4118.52823639 2035.29316902 C-4113.68405095 2032.86497821 -4108.84181756 2030.43290815 -4104 2028 C-4098.48047312 2025.22655764 -4092.96014396 2022.45473116 -4087.4375 2019.6875 C-4086.76381378 2019.34989655 -4086.09012756 2019.01229309 -4085.39602661 2018.66445923 C-4076.23736792 2014.07844111 -4067.03491211 2009.59684243 -4057.77880859 2005.21044922 C-4049.65551548 2001.34621907 -4041.60435737 1997.342505 -4033.5625 1993.3125 C-4032.88953888 1992.97529938 -4032.21657776 1992.63809875 -4031.52322388 1992.29067993 C-4026.68070864 1989.86332015 -4021.84015064 1987.43207056 -4017 1985 C-4011.48047312 1982.22655764 -4005.96014396 1979.45473116 -4000.4375 1976.6875 C-3999.76381378 1976.34989655 -3999.09012756 1976.01229309 -3998.39602661 1975.66445923 C-3989.23736792 1971.07844111 -3980.03491211 1966.59684243 -3970.77880859 1962.21044922 C-3962.65551548 1958.34621907 -3954.60435737 1954.342505 -3946.5625 1950.3125 C-3945.88953888 1949.97529938 -3945.21657776 1949.63809875 -3944.52322388 1949.29067993 C-3939.68070864 1946.86332015 -3934.84015064 1944.43207056 -3930 1942 C-3924.48047312 1939.22655764 -3918.96014396 1936.45473116 -3913.4375 1933.6875 C-3912.76381378 1933.34989655 -3912.09012756 1933.01229309 -3911.39602661 1932.66445923 C-3902.23736792 1928.07844111 -3893.03491211 1923.59684243 -3883.77880859 1919.21044922 C-3875.65551548 1915.34621907 -3867.60435737 1911.342505 -3859.5625 1907.3125 C-3858.88953888 1906.97529938 -3858.21657776 1906.63809875 -3857.52322388 1906.29067993 C-3852.68070864 1903.86332015 -3847.84015064 1901.43207056 -3843 1899 C-3837.48047312 1896.22655764 -3831.96014396 1893.45473116 -3826.4375 1890.6875 C-3825.76381378 1890.34989655 -3825.09012756 1890.01229309 -3824.39602661 1889.66445923 C-3815.23736792 1885.07844111 -3806.03491211 1880.59684243 -3796.77880859 1876.21044922 C-3788.65551548 1872.34621907 -3780.60435737 1868.342505 -3772.5625 1864.3125 C-3771.88953888 1863.97529938 -3771.21657776 1863.63809875 -3770.52322388 1863.29067993 C-3765.68070864 1860.86332015 -3760.84015064 1858.43207056 -3756 1856 C-3750.48047312 1853.22655764 -3744.96014396 1850.45473116 -3739.4375 1847.6875 C-3738.76381378 1847.34989655 -3738.09012756 1847.01229309 -3737.39602661 1846.66445923 C-3728.23736792 1842.07844111 -3719.03491211 1837.59684243 -3709.77880859 1833.21044922 C-3701.65551548 1829.34621907 -3693.60435737 1825.342505 -3685.5625 1821.3125 C-3684.88953888 1820.97529938 -3684.21657776 1820.63809875 -3683.52322388 1820.29067993 C-3678.68070864 1817.86332015 -3673.84015064 1815.43207056 -3669 1813 C-3663.48047312 1810.22655764 -3657.96014396 1807.45473116 -3652.4375 1804.6875 C-3651.76381378 1804.34989655 -3651.09012756 1804.01229309 -3650.39602661 1803.66445923 C-3641.23736792 1799.07844111 -3632.03491211 1794.59684243 -3622.77880859 1790.21044922 C-3614.65551548 1786.34621907 -3606.60435737 1782.342505 -3598.5625 1778.3125 C-3597.88953888 1777.97529938 -3597.21657776 1777.63809875 -3596.52322388 1777.29067993 C-3591.68070864 1774.86332015 -3586.84015064 1772.43207056 -3582 1770 C-3576.48047312 1767.22655764 -3570.96014396 1764.45473116 -3565.4375 1761.6875 C-3564.76381378 1761.34989655 -3564.09012756 1761.01229309 -3563.39602661 1760.66445923 C-3554.23736792 1756.07844111 -3545.03491211 1751.59684243 -3535.77880859 1747.21044922 C-3527.65551548 1743.34621907 -3519.60435737 1739.342505 -3511.5625 1735.3125 C-3510.88953888 1734.97529938 -3510.21657776 1734.63809875 -3509.52322388 1734.29067993 C-3504.68070864 1731.86332015 -3499.84015064 1729.43207056 -3495 1727 C-3489.48047312 1724.22655764 -3483.96014396 1721.45473116 -3478.4375 1718.6875 C-3477.76381378 1718.34989655 -3477.09012756 1718.01229309 -3476.39602661 1717.66445923 C-3467.23736792 1713.07844111 -3458.03491211 1708.59684243 -3448.77880859 1704.21044922 C-3440.65551548 1700.34621907 -3432.60435737 1696.342505 -3424.5625 1692.3125 C-3423.88953888 1691.97529938 -3423.21657776 1691.63809875 -3422.52322388 1691.29067993 C-3417.68070864 1688.86332015 -3412.84015064 1686.43207056 -3408 1684 C-3402.48047312 1681.22655764 -3396.96014396 1678.45473116 -3391.4375 1675.6875 C-3390.76381378 1675.34989655 -3390.09012756 1675.01229309 -3389.39602661 1674.66445923 C-3380.23736792 1670.07844111 -3371.03491211 1665.59684243 -3361.77880859 1661.21044922 C-3353.65551548 1657.34621907 -3345.60435737 1653.342505 -3337.5625 1649.3125 C-3336.88953888 1648.97529938 -3336.21657776 1648.63809875 -3335.52322388 1648.29067993 C-3330.68070864 1645.86332015 -3325.84015064 1643.43207056 -3321 1641 C-3315.48047312 1638.22655764 -3309.96014396 1635.45473116 -3304.4375 1632.6875 C-3303.76381378 1632.34989655 -3303.09012756 1632.01229309 -3302.39602661 1631.66445923 C-3293.23736792 1627.07844111 -3284.03491211 1622.59684243 -3274.77880859 1618.21044922 C-3266.65551548 1614.34621907 -3258.60435737 1610.342505 -3250.5625 1606.3125 C-3249.88953888 1605.97529938 -3249.21657776 1605.63809875 -3248.52322388 1605.29067993 C-3243.68070864 1602.86332015 -3238.84015064 1600.43207056 -3234 1598 C-3228.48047312 1595.22655764 -3222.96014396 1592.45473116 -3217.4375 1589.6875 C-3216.76381378 1589.34989655 -3216.09012756 1589.01229309 -3215.39602661 1588.66445923 C-3206.23736792 1584.07844111 -3197.03491211 1579.59684243 -3187.77880859 1575.21044922 C-3179.65551548 1571.34621907 -3171.60435737 1567.342505 -3163.5625 1563.3125 C-3162.88953888 1562.97529938 -3162.21657776 1562.63809875 -3161.52322388 1562.29067993 C-3156.68070864 1559.86332015 -3151.84015064 1557.43207056 -3147 1555 C-3141.48047312 1552.22655764 -3135.96014396 1549.45473116 -3130.4375 1546.6875 C-3129.76381378 1546.34989655 -3129.09012756 1546.01229309 -3128.39602661 1545.66445923 C-3119.23736792 1541.07844111 -3110.03491211 1536.59684243 -3100.77880859 1532.21044922 C-3092.65551548 1528.34621907 -3084.60435737 1524.342505 -3076.5625 1520.3125 C-3075.88953888 1519.97529938 -3075.21657776 1519.63809875 -3074.52322388 1519.29067993 C-3069.68070864 1516.86332015 -3064.84015064 1514.43207056 -3060 1512 C-3054.48047312 1509.22655764 -3048.96014396 1506.45473116 -3043.4375 1503.6875 C-3042.76381378 1503.34989655 -3042.09012756 1503.01229309 -3041.39602661 1502.66445923 C-3032.23736792 1498.07844111 -3023.03491211 1493.59684243 -3013.77880859 1489.21044922 C-3005.65551548 1485.34621907 -2997.60435737 1481.342505 -2989.5625 1477.3125 C-2988.88953888 1476.97529938 -2988.21657776 1476.63809875 -2987.52322388 1476.29067993 C-2982.68070864 1473.86332015 -2977.84015064 1471.43207056 -2973 1469 C-2967.48047312 1466.22655764 -2961.96014396 1463.45473116 -2956.4375 1460.6875 C-2955.76381378 1460.34989655 -2955.09012756 1460.01229309 -2954.39602661 1459.66445923 C-2945.23736792 1455.07844111 -2936.03491211 1450.59684243 -2926.77880859 1446.21044922 C-2918.65551548 1442.34621907 -2910.60435737 1438.342505 -2902.5625 1434.3125 C-2901.88953888 1433.97529938 -2901.21657776 1433.63809875 -2900.52322388 1433.29067993 C-2895.68070864 1430.86332015 -2890.84015064 1428.43207056 -2886 1426 C-2880.48047312 1423.22655764 -2874.96014396 1420.45473116 -2869.4375 1417.6875 C-2868.76381378 1417.34989655 -2868.09012756 1417.01229309 -2867.39602661 1416.66445923 C-2858.23736792 1412.07844111 -2849.03491211 1407.59684243 -2839.77880859 1403.21044922 C-2831.65551548 1399.34621907 -2823.60435737 1395.342505 -2815.5625 1391.3125 C-2814.88953888 1390.97529938 -2814.21657776 1390.63809875 -2813.52322388 1390.29067993 C-2808.68070864 1387.86332015 -2803.84015064 1385.43207056 -2799 1383 C-2793.48047312 1380.22655764 -2787.96014396 1377.45473116 -2782.4375 1374.6875 C-2781.76381378 1374.34989655 -2781.09012756 1374.01229309 -2780.39602661 1373.66445923 C-2771.23736792 1369.07844111 -2762.03491211 1364.59684243 -2752.77880859 1360.21044922 C-2744.65551548 1356.34621907 -2736.60435737 1352.342505 -2728.5625 1348.3125 C-2727.88953888 1347.97529938 -2727.21657776 1347.63809875 -2726.52322388 1347.29067993 C-2721.68070864 1344.86332015 -2716.84015064 1342.43207056 -2712 1340 C-2706.48047312 1337.22655764 -2700.96014396 1334.45473116 -2695.4375 1331.6875 C-2694.76381378 1331.34989655 -2694.09012756 1331.01229309 -2693.39602661 1330.66445923 C-2684.23736792 1326.07844111 -2675.03491211 1321.59684243 -2665.77880859 1317.21044922 C-2657.65551548 1313.34621907 -2649.60435737 1309.342505 -2641.5625 1305.3125 C-2640.88953888 1304.97529938 -2640.21657776 1304.63809875 -2639.52322388 1304.29067993 C-2634.68070864 1301.86332015 -2629.84015064 1299.43207056 -2625 1297 C-2619.48047312 1294.22655764 -2613.96014396 1291.45473116 -2608.4375 1288.6875 C-2607.76381378 1288.34989655 -2607.09012756 1288.01229309 -2606.39602661 1287.66445923 C-2597.23736792 1283.07844111 -2588.03491211 1278.59684243 -2578.77880859 1274.21044922 C-2570.65551548 1270.34621907 -2562.60435737 1266.342505 -2554.5625 1262.3125 C-2553.88953888 1261.97529938 -2553.21657776 1261.63809875 -2552.52322388 1261.29067993 C-2547.68070864 1258.86332015 -2542.84015064 1256.43207056 -2538 1254 C-2532.48047312 1251.22655764 -2526.96014396 1248.45473116 -2521.4375 1245.6875 C-2520.76381378 1245.34989655 -2520.09012756 1245.01229309 -2519.39602661 1244.66445923 C-2510.23736792 1240.07844111 -2501.03491211 1235.59684243 -2491.77880859 1231.21044922 C-2483.65551548 1227.34621907 -2475.60435737 1223.342505 -2467.5625 1219.3125 C-2466.88953888 1218.97529938 -2466.21657776 1218.63809875 -2465.52322388 1218.29067993 C-2460.68070864 1215.86332015 -2455.84015064 1213.43207056 -2451 1211 C-2445.48047312 1208.22655764 -2439.96014396 1205.45473116 -2434.4375 1202.6875 C-2433.76381378 1202.34989655 -2433.09012756 1202.01229309 -2432.39602661 1201.66445923 C-2423.23736792 1197.07844111 -2414.03491211 1192.59684243 -2404.77880859 1188.21044922 C-2396.65551548 1184.34621907 -2388.60435737 1180.342505 -2380.5625 1176.3125 C-2379.88953888 1175.97529938 -2379.21657776 1175.63809875 -2378.52322388 1175.29067993 C-2373.68070864 1172.86332015 -2368.84015064 1170.43207056 -2364 1168 C-2358.48047312 1165.22655764 -2352.96014396 1162.45473116 -2347.4375 1159.6875 C-2346.76381378 1159.34989655 -2346.09012756 1159.01229309 -2345.39602661 1158.66445923 C-2336.23736792 1154.07844111 -2327.03491211 1149.59684243 -2317.77880859 1145.21044922 C-2309.65551548 1141.34621907 -2301.60435737 1137.342505 -2293.5625 1133.3125 C-2292.88953888 1132.97529938 -2292.21657776 1132.63809875 -2291.52322388 1132.29067993 C-2286.68070864 1129.86332015 -2281.84015064 1127.43207056 -2277 1125 C-2271.48047312 1122.22655764 -2265.96014396 1119.45473116 -2260.4375 1116.6875 C-2259.76381378 1116.34989655 -2259.09012756 1116.01229309 -2258.39602661 1115.66445923 C-2249.23736792 1111.07844111 -2240.03491211 1106.59684243 -2230.77880859 1102.21044922 C-2222.65551548 1098.34621907 -2214.60435737 1094.342505 -2206.5625 1090.3125 C-2205.88953888 1089.97529938 -2205.21657776 1089.63809875 -2204.52322388 1089.29067993 C-2199.68070864 1086.86332015 -2194.84015064 1084.43207056 -2190 1082 C-2184.48047312 1079.22655764 -2178.96014396 1076.45473116 -2173.4375 1073.6875 C-2172.76381378 1073.34989655 -2172.09012756 1073.01229309 -2171.39602661 1072.66445923 C-2162.23736792 1068.07844111 -2153.03491211 1063.59684243 -2143.77880859 1059.21044922 C-2135.65551548 1055.34621907 -2127.60435737 1051.342505 -2119.5625 1047.3125 C-2118.55305832 1046.80669907 -2118.55305832 1046.80669907 -2117.52322388 1046.29067993 C-2112.68070864 1043.86332015 -2107.84015064 1041.43207056 -2103 1039 C-2097.48047312 1036.22655764 -2091.96014396 1033.45473116 -2086.4375 1030.6875 C-2085.76381378 1030.34989655 -2085.09012756 1030.01229309 -2084.39602661 1029.66445923 C-2075.23736792 1025.07844111 -2066.03491211 1020.59684243 -2056.77880859 1016.21044922 C-2048.65551548 1012.34621907 -2040.60435737 1008.342505 -2032.5625 1004.3125 C-2031.55305832 1003.80669907 -2031.55305832 1003.80669907 -2030.52322388 1003.29067993 C-2025.68070864 1000.86332015 -2020.84015064 998.43207056 -2016 996 C-2010.48047312 993.22655764 -2004.96014396 990.45473116 -1999.4375 987.6875 C-1998.76381378 987.34989655 -1998.09012756 987.01229309 -1997.39602661 986.66445923 C-1988.23736792 982.07844111 -1979.03491211 977.59684243 -1969.77880859 973.21044922 C-1961.65551548 969.34621907 -1953.60435737 965.342505 -1945.5625 961.3125 C-1944.55305832 960.80669907 -1944.55305832 960.80669907 -1943.52322388 960.29067993 C-1938.68070864 957.86332015 -1933.84015064 955.43207056 -1929 953 C-1923.48047312 950.22655764 -1917.96014396 947.45473116 -1912.4375 944.6875 C-1911.76381378 944.34989655 -1911.09012756 944.01229309 -1910.39602661 943.66445923 C-1901.23736792 939.07844111 -1892.03491211 934.59684243 -1882.77880859 930.21044922 C-1874.65551548 926.34621907 -1866.60435737 922.342505 -1858.5625 918.3125 C-1857.55305832 917.80669907 -1857.55305832 917.80669907 -1856.52322388 917.29067993 C-1851.68070864 914.86332015 -1846.84015064 912.43207056 -1842 910 C-1836.48047312 907.22655764 -1830.96014396 904.45473116 -1825.4375 901.6875 C-1824.76381378 901.34989655 -1824.09012756 901.01229309 -1823.39602661 900.66445923 C-1814.23736792 896.07844111 -1805.03491211 891.59684243 -1795.77880859 887.21044922 C-1787.65551548 883.34621907 -1779.60435737 879.342505 -1771.5625 875.3125 C-1770.55305832 874.80669907 -1770.55305832 874.80669907 -1769.52322388 874.29067993 C-1764.68070864 871.86332015 -1759.84015064 869.43207056 -1755 867 C-1749.48047312 864.22655764 -1743.96014396 861.45473116 -1738.4375 858.6875 C-1737.76381378 858.34989655 -1737.09012756 858.01229309 -1736.39602661 857.66445923 C-1727.23736792 853.07844111 -1718.03491211 848.59684243 -1708.77880859 844.21044922 C-1700.65551548 840.34621907 -1692.60435737 836.342505 -1684.5625 832.3125 C-1683.55305832 831.80669907 -1683.55305832 831.80669907 -1682.52322388 831.29067993 C-1677.68070864 828.86332015 -1672.84015064 826.43207056 -1668 824 C-1662.48047312 821.22655764 -1656.96014396 818.45473116 -1651.4375 815.6875 C-1650.76381378 815.34989655 -1650.09012756 815.01229309 -1649.39602661 814.66445923 C-1640.23736792 810.07844111 -1631.03491211 805.59684243 -1621.77880859 801.21044922 C-1613.65551548 797.34621907 -1605.60435737 793.342505 -1597.5625 789.3125 C-1596.55305832 788.80669907 -1596.55305832 788.80669907 -1595.52322388 788.29067993 C-1590.68070864 785.86332015 -1585.84015064 783.43207056 -1581 781 C-1575.48047312 778.22655764 -1569.96014396 775.45473116 -1564.4375 772.6875 C-1563.76381378 772.34989655 -1563.09012756 772.01229309 -1562.39602661 771.66445923 C-1553.23736792 767.07844111 -1544.03491211 762.59684243 -1534.77880859 758.21044922 C-1526.65551548 754.34621907 -1518.60435737 750.342505 -1510.5625 746.3125 C-1509.55305832 745.80669907 -1509.55305832 745.80669907 -1508.52322388 745.29067993 C-1503.68070864 742.86332015 -1498.84015064 740.43207056 -1494 738 C-1488.48047312 735.22655764 -1482.96014396 732.45473116 -1477.4375 729.6875 C-1476.76381378 729.34989655 -1476.09012756 729.01229309 -1475.39602661 728.66445923 C-1466.23736792 724.07844111 -1457.03491211 719.59684243 -1447.77880859 715.21044922 C-1439.65551548 711.34621907 -1431.60435737 707.342505 -1423.5625 703.3125 C-1422.55305832 702.80669907 -1422.55305832 702.80669907 -1421.52322388 702.29067993 C-1416.68070864 699.86332015 -1411.84015064 697.43207056 -1407 695 C-1401.48047312 692.22655764 -1395.96014396 689.45473116 -1390.4375 686.6875 C-1389.76381378 686.34989655 -1389.09012756 686.01229309 -1388.39602661 685.66445923 C-1379.23736792 681.07844111 -1370.03491211 676.59684243 -1360.77880859 672.21044922 C-1352.65551548 668.34621907 -1344.60435737 664.342505 -1336.5625 660.3125 C-1335.55305832 659.80669907 -1335.55305832 659.80669907 -1334.52322388 659.29067993 C-1329.68070864 656.86332015 -1324.84015064 654.43207056 -1320 652 C-1314.48047312 649.22655764 -1308.96014396 646.45473116 -1303.4375 643.6875 C-1302.76381378 643.34989655 -1302.09012756 643.01229309 -1301.39602661 642.66445923 C-1292.23736792 638.07844111 -1283.03491211 633.59684243 -1273.77880859 629.21044922 C-1265.65551548 625.34621907 -1257.60435737 621.342505 -1249.5625 617.3125 C-1248.55305832 616.80669907 -1248.55305832 616.80669907 -1247.52322388 616.29067993 C-1242.68070864 613.86332015 -1237.84015064 611.43207056 -1233 609 C-1227.48047312 606.22655764 -1221.96014396 603.45473116 -1216.4375 600.6875 C-1215.76381378 600.34989655 -1215.09012756 600.01229309 -1214.39602661 599.66445923 C-1205.23736792 595.07844111 -1196.03491211 590.59684243 -1186.77880859 586.21044922 C-1178.65551548 582.34621907 -1170.60435737 578.342505 -1162.5625 574.3125 C-1161.55305832 573.80669907 -1161.55305832 573.80669907 -1160.52322388 573.29067993 C-1155.68070864 570.86332015 -1150.84015064 568.43207056 -1146 566 C-1140.48047312 563.22655764 -1134.96014396 560.45473116 -1129.4375 557.6875 C-1128.76381378 557.34989655 -1128.09012756 557.01229309 -1127.39602661 556.66445923 C-1118.23736792 552.07844111 -1109.03491211 547.59684243 -1099.77880859 543.21044922 C-1091.65551548 539.34621907 -1083.60435737 535.342505 -1075.5625 531.3125 C-1074.55305832 530.80669907 -1074.55305832 530.80669907 -1073.52322388 530.29067993 C-1068.68070864 527.86332015 -1063.84015064 525.43207056 -1059 523 C-1053.48047312 520.22655764 -1047.96014396 517.45473116 -1042.4375 514.6875 C-1041.76381378 514.34989655 -1041.09012756 514.01229309 -1040.39602661 513.66445923 C-1031.23736792 509.07844111 -1022.03491211 504.59684243 -1012.77880859 500.21044922 C-1004.65551548 496.34621907 -996.60435737 492.342505 -988.5625 488.3125 C-987.55305832 487.80669907 -987.55305832 487.80669907 -986.52322388 487.29067993 C-981.68070864 484.86332015 -976.84015064 482.43207056 -972 480 C-966.48047312 477.22655764 -960.96014396 474.45473116 -955.4375 471.6875 C-954.76381378 471.34989655 -954.09012756 471.01229309 -953.39602661 470.66445923 C-944.23736792 466.07844111 -935.03491211 461.59684243 -925.77880859 457.21044922 C-917.65551548 453.34621907 -909.60435737 449.342505 -901.5625 445.3125 C-900.55305832 444.80669907 -900.55305832 444.80669907 -899.52322388 444.29067993 C-894.68070864 441.86332015 -889.84015064 439.43207056 -885 437 C-879.48047312 434.22655764 -873.96014396 431.45473116 -868.4375 428.6875 C-867.76381378 428.34989655 -867.09012756 428.01229309 -866.39602661 427.66445923 C-857.23736792 423.07844111 -848.03491211 418.59684243 -838.77880859 414.21044922 C-830.65551548 410.34621907 -822.60435737 406.342505 -814.5625 402.3125 C-813.55305832 401.80669907 -813.55305832 401.80669907 -812.52322388 401.29067993 C-807.68070864 398.86332015 -802.84015064 396.43207056 -798 394 C-792.48047312 391.22655764 -786.96014396 388.45473116 -781.4375 385.6875 C-780.76381378 385.34989655 -780.09012756 385.01229309 -779.39602661 384.66445923 C-770.23736792 380.07844111 -761.03491211 375.59684243 -751.77880859 371.21044922 C-743.65551548 367.34621907 -735.60435737 363.342505 -727.5625 359.3125 C-726.55305832 358.80669907 -726.55305832 358.80669907 -725.52322388 358.29067993 C-720.68070864 355.86332015 -715.84015064 353.43207056 -711 351 C-705.48047312 348.22655764 -699.96014396 345.45473116 -694.4375 342.6875 C-693.76381378 342.34989655 -693.09012756 342.01229309 -692.39602661 341.66445923 C-683.23736792 337.07844111 -674.03491211 332.59684243 -664.77880859 328.21044922 C-656.65551548 324.34621907 -648.60435737 320.342505 -640.5625 316.3125 C-639.55305832 315.80669907 -639.55305832 315.80669907 -638.52322388 315.29067993 C-633.68070864 312.86332015 -628.84015064 310.43207056 -624 308 C-618.48047312 305.22655764 -612.96014396 302.45473116 -607.4375 299.6875 C-606.76381378 299.34989655 -606.09012756 299.01229309 -605.39602661 298.66445923 C-596.23736792 294.07844111 -587.03491211 289.59684243 -577.77880859 285.21044922 C-569.65551548 281.34621907 -561.60435737 277.342505 -553.5625 273.3125 C-552.55305832 272.80669907 -552.55305832 272.80669907 -551.52322388 272.29067993 C-546.68070864 269.86332015 -541.84015064 267.43207056 -537 265 C-531.48047312 262.22655764 -525.96014396 259.45473116 -520.4375 256.6875 C-519.76381378 256.34989655 -519.09012756 256.01229309 -518.39602661 255.66445923 C-509.23736792 251.07844111 -500.03491211 246.59684243 -490.77880859 242.21044922 C-482.65551548 238.34621907 -474.60435737 234.342505 -466.5625 230.3125 C-465.88953888 229.97529938 -465.21657776 229.63809875 -464.52322388 229.29067993 C-459.68070864 226.86332015 -454.84015064 224.43207056 -450 222 C-444.48047312 219.22655764 -438.96014396 216.45473116 -433.4375 213.6875 C-432.76381378 213.34989655 -432.09012756 213.01229309 -431.39602661 212.66445923 C-422.23736792 208.07844111 -413.03491211 203.59684243 -403.77880859 199.21044922 C-395.65551548 195.34621907 -387.60435737 191.342505 -379.5625 187.3125 C-378.88953888 186.97529938 -378.21657776 186.63809875 -377.52322388 186.29067993 C-372.68070864 183.86332015 -367.84015064 181.43207056 -363 179 C-357.48047312 176.22655764 -351.96014396 173.45473116 -346.4375 170.6875 C-345.76381378 170.34989655 -345.09012756 170.01229309 -344.39602661 169.66445923 C-335.23736792 165.07844111 -326.03491211 160.59684243 -316.77880859 156.21044922 C-308.65551548 152.34621907 -300.60435737 148.342505 -292.5625 144.3125 C-291.88953888 143.97529938 -291.21657776 143.63809875 -290.52322388 143.29067993 C-285.68070864 140.86332015 -280.84015064 138.43207056 -276 136 C-270.48047312 133.22655764 -264.96014396 130.45473116 -259.4375 127.6875 C-258.76381378 127.34989655 -258.09012756 127.01229309 -257.39602661 126.66445923 C-248.23736792 122.07844111 -239.03491211 117.59684243 -229.77880859 113.21044922 C-221.65551548 109.34621907 -213.60435737 105.342505 -205.5625 101.3125 C-204.55305832 100.80669907 -204.55305832 100.80669907 -203.52322388 100.29067993 C-198.68070864 97.86332015 -193.84015064 95.43207056 -189 93 C-183.48047312 90.22655764 -177.96014396 87.45473116 -172.4375 84.6875 C-171.76381378 84.34989655 -171.09012756 84.01229309 -170.39602661 83.66445923 C-161.23736792 79.07844111 -152.03491211 74.59684243 -142.77880859 70.21044922 C-134.65551548 66.34621907 -126.60435737 62.342505 -118.5625 58.3125 C-117.88953888 57.97529938 -117.21657776 57.63809875 -116.52322388 57.29067993 C-111.68070864 54.86332015 -106.84015064 52.43207056 -102 50 C-84.58128523 41.24747419 -67.15008266 32.55099426 -49.5324707 24.20318604 C-43.31098335 21.24733478 -37.11338644 18.24157362 -30.91552734 15.23657227 C-29.45092892 14.52705936 -27.98574266 13.8187588 -26.52001953 13.11157227 C-18.54364346 9.2628009 -10.63694017 5.37058358 -2.91503906 1.0246582 C-1 0 -1 0 0 0 Z " fill="#181814" transform="translate(4488,2381)"/>
<path d="M0 0 C0 49.83 0 99.66 0 151 C-25.14856856 164.71740104 -25.14856856 164.71740104 -34.33203125 168.99609375 C-36.44780608 169.99773774 -38.56319254 171.00020244 -40.67822266 172.00341797 C-42.25123138 172.7469754 -42.25123138 172.7469754 -43.85601807 173.5055542 C-48.96825538 175.93558139 -54.05317525 178.42078453 -59.13671875 180.91015625 C-60.14734375 181.40485916 -61.15796875 181.89956207 -62.19921875 182.40925598 C-65.36262527 183.9590234 -68.52515399 185.51056985 -71.6875 187.0625 C-72.80054504 187.60826691 -73.91359009 188.15403381 -75.06036377 188.71633911 C-88.27617959 195.19873981 -101.47261821 201.71795801 -114.63671875 208.3046875 C-115.53710027 208.75517236 -115.53710027 208.75517236 -116.45567131 209.21475792 C-122.79605134 212.38775377 -129.13337326 215.56679321 -135.4675293 218.75219727 C-145.29336011 223.6880091 -155.13523365 228.5726124 -165.0703125 233.28515625 C-174.24939725 237.64187872 -183.35419156 242.13555916 -192.4375 246.6875 C-193.10983799 247.02438906 -193.78217598 247.36127811 -194.47488785 247.70837593 C-199.31803245 250.13605056 -204.15922056 252.56761348 -209 255 C-214.51952688 257.77344236 -220.03985604 260.54526884 -225.5625 263.3125 C-226.23618622 263.65010345 -226.90987244 263.98770691 -227.60397339 264.33554077 C-236.76263208 268.92155889 -245.96508789 273.40315757 -255.22119141 277.78955078 C-263.34448452 281.65378093 -271.39564263 285.657495 -279.4375 289.6875 C-280.44694168 290.19330093 -280.44694168 290.19330093 -281.47677612 290.70932007 C-286.31929136 293.13667985 -291.15984936 295.56792944 -296 298 C-301.51952688 300.77344236 -307.03985604 303.54526884 -312.5625 306.3125 C-313.23618622 306.65010345 -313.90987244 306.98770691 -314.60397339 307.33554077 C-323.76263208 311.92155889 -332.96508789 316.40315757 -342.22119141 320.78955078 C-350.34448452 324.65378093 -358.39564263 328.657495 -366.4375 332.6875 C-367.44694168 333.19330093 -367.44694168 333.19330093 -368.47677612 333.70932007 C-373.31929136 336.13667985 -378.15984936 338.56792944 -383 341 C-388.51952688 343.77344236 -394.03985604 346.54526884 -399.5625 349.3125 C-400.23618622 349.65010345 -400.90987244 349.98770691 -401.60397339 350.33554077 C-410.76263208 354.92155889 -419.96508789 359.40315757 -429.22119141 363.78955078 C-437.34448452 367.65378093 -445.39564263 371.657495 -453.4375 375.6875 C-454.44694168 376.19330093 -454.44694168 376.19330093 -455.47677612 376.70932007 C-460.31929136 379.13667985 -465.15984936 381.56792944 -470 384 C-475.51952688 386.77344236 -481.03985604 389.54526884 -486.5625 392.3125 C-487.23618622 392.65010345 -487.90987244 392.98770691 -488.60397339 393.33554077 C-497.76263208 397.92155889 -506.96508789 402.40315757 -516.22119141 406.78955078 C-524.34448452 410.65378093 -532.39564263 414.657495 -540.4375 418.6875 C-541.44694168 419.19330093 -541.44694168 419.19330093 -542.47677612 419.70932007 C-547.31929136 422.13667985 -552.15984936 424.56792944 -557 427 C-562.51952688 429.77344236 -568.03985604 432.54526884 -573.5625 435.3125 C-574.23618622 435.65010345 -574.90987244 435.98770691 -575.60397339 436.33554077 C-584.76263208 440.92155889 -593.96508789 445.40315757 -603.22119141 449.78955078 C-611.34448452 453.65378093 -619.39564263 457.657495 -627.4375 461.6875 C-628.44694168 462.19330093 -628.44694168 462.19330093 -629.47677612 462.70932007 C-634.31929136 465.13667985 -639.15984936 467.56792944 -644 470 C-649.51952688 472.77344236 -655.03985604 475.54526884 -660.5625 478.3125 C-661.23618622 478.65010345 -661.90987244 478.98770691 -662.60397339 479.33554077 C-671.76263208 483.92155889 -680.96508789 488.40315757 -690.22119141 492.78955078 C-698.34448452 496.65378093 -706.39564263 500.657495 -714.4375 504.6875 C-715.44694168 505.19330093 -715.44694168 505.19330093 -716.47677612 505.70932007 C-721.31929136 508.13667985 -726.15984936 510.56792944 -731 513 C-736.51952688 515.77344236 -742.03985604 518.54526884 -747.5625 521.3125 C-748.23618622 521.65010345 -748.90987244 521.98770691 -749.60397339 522.33554077 C-758.76263208 526.92155889 -767.96508789 531.40315757 -777.22119141 535.78955078 C-785.34448452 539.65378093 -793.39564263 543.657495 -801.4375 547.6875 C-802.44694168 548.19330093 -802.44694168 548.19330093 -803.47677612 548.70932007 C-808.31929136 551.13667985 -813.15984936 553.56792944 -818 556 C-823.51952688 558.77344236 -829.03985604 561.54526884 -834.5625 564.3125 C-835.23618622 564.65010345 -835.90987244 564.98770691 -836.60397339 565.33554077 C-845.76263208 569.92155889 -854.96508789 574.40315757 -864.22119141 578.78955078 C-872.34448452 582.65378093 -880.39564263 586.657495 -888.4375 590.6875 C-889.44694168 591.19330093 -889.44694168 591.19330093 -890.47677612 591.70932007 C-895.31929136 594.13667985 -900.15984936 596.56792944 -905 599 C-910.51952688 601.77344236 -916.03985604 604.54526884 -921.5625 607.3125 C-922.23618622 607.65010345 -922.90987244 607.98770691 -923.60397339 608.33554077 C-932.76263208 612.92155889 -941.96508789 617.40315757 -951.22119141 621.78955078 C-959.34448452 625.65378093 -967.39564263 629.657495 -975.4375 633.6875 C-976.44694168 634.19330093 -976.44694168 634.19330093 -977.47677612 634.70932007 C-982.31929136 637.13667985 -987.15984936 639.56792944 -992 642 C-997.51952688 644.77344236 -1003.03985604 647.54526884 -1008.5625 650.3125 C-1009.23618622 650.65010345 -1009.90987244 650.98770691 -1010.60397339 651.33554077 C-1019.76263208 655.92155889 -1028.96508789 660.40315757 -1038.22119141 664.78955078 C-1046.34448452 668.65378093 -1054.39564263 672.657495 -1062.4375 676.6875 C-1063.44694168 677.19330093 -1063.44694168 677.19330093 -1064.47677612 677.70932007 C-1069.31929136 680.13667985 -1074.15984936 682.56792944 -1079 685 C-1084.51952688 687.77344236 -1090.03985604 690.54526884 -1095.5625 693.3125 C-1096.23618622 693.65010345 -1096.90987244 693.98770691 -1097.60397339 694.33554077 C-1106.76263208 698.92155889 -1115.96508789 703.40315757 -1125.22119141 707.78955078 C-1133.34448452 711.65378093 -1141.39564263 715.657495 -1149.4375 719.6875 C-1150.44694168 720.19330093 -1150.44694168 720.19330093 -1151.47677612 720.70932007 C-1156.31929136 723.13667985 -1161.15984936 725.56792944 -1166 728 C-1171.51952688 730.77344236 -1177.03985604 733.54526884 -1182.5625 736.3125 C-1183.23618622 736.65010345 -1183.90987244 736.98770691 -1184.60397339 737.33554077 C-1193.76263208 741.92155889 -1202.96508789 746.40315757 -1212.22119141 750.78955078 C-1220.34448452 754.65378093 -1228.39564263 758.657495 -1236.4375 762.6875 C-1237.44694168 763.19330093 -1237.44694168 763.19330093 -1238.47677612 763.70932007 C-1243.31929136 766.13667985 -1248.15984936 768.56792944 -1253 771 C-1258.51952688 773.77344236 -1264.03985604 776.54526884 -1269.5625 779.3125 C-1270.23618622 779.65010345 -1270.90987244 779.98770691 -1271.60397339 780.33554077 C-1280.76263208 784.92155889 -1289.96508789 789.40315757 -1299.22119141 793.78955078 C-1307.34448452 797.65378093 -1315.39564263 801.657495 -1323.4375 805.6875 C-1324.44694168 806.19330093 -1324.44694168 806.19330093 -1325.47677612 806.70932007 C-1330.31929136 809.13667985 -1335.15984936 811.56792944 -1340 814 C-1345.51952688 816.77344236 -1351.03985604 819.54526884 -1356.5625 822.3125 C-1357.23618622 822.65010345 -1357.90987244 822.98770691 -1358.60397339 823.33554077 C-1367.76263208 827.92155889 -1376.96508789 832.40315757 -1386.22119141 836.78955078 C-1394.34448452 840.65378093 -1402.39564263 844.657495 -1410.4375 848.6875 C-1411.44694168 849.19330093 -1411.44694168 849.19330093 -1412.47677612 849.70932007 C-1417.31929136 852.13667985 -1422.15984936 854.56792944 -1427 857 C-1432.51952688 859.77344236 -1438.03985604 862.54526884 -1443.5625 865.3125 C-1444.23618622 865.65010345 -1444.90987244 865.98770691 -1445.60397339 866.33554077 C-1454.76263208 870.92155889 -1463.96508789 875.40315757 -1473.22119141 879.78955078 C-1481.34448452 883.65378093 -1489.39564263 887.657495 -1497.4375 891.6875 C-1498.44694168 892.19330093 -1498.44694168 892.19330093 -1499.47677612 892.70932007 C-1504.31929136 895.13667985 -1509.15984936 897.56792944 -1514 900 C-1519.51952688 902.77344236 -1525.03985604 905.54526884 -1530.5625 908.3125 C-1531.23618622 908.65010345 -1531.90987244 908.98770691 -1532.60397339 909.33554077 C-1541.76263208 913.92155889 -1550.96508789 918.40315757 -1560.22119141 922.78955078 C-1568.34448452 926.65378093 -1576.39564263 930.657495 -1584.4375 934.6875 C-1585.44694168 935.19330093 -1585.44694168 935.19330093 -1586.47677612 935.70932007 C-1591.31929136 938.13667985 -1596.15984936 940.56792944 -1601 943 C-1606.51952688 945.77344236 -1612.03985604 948.54526884 -1617.5625 951.3125 C-1618.23618622 951.65010345 -1618.90987244 951.98770691 -1619.60397339 952.33554077 C-1628.76263208 956.92155889 -1637.96508789 961.40315757 -1647.22119141 965.78955078 C-1655.34448452 969.65378093 -1663.39564263 973.657495 -1671.4375 977.6875 C-1672.44694168 978.19330093 -1672.44694168 978.19330093 -1673.47677612 978.70932007 C-1678.31929136 981.13667985 -1683.15984936 983.56792944 -1688 986 C-1693.51952688 988.77344236 -1699.03985604 991.54526884 -1704.5625 994.3125 C-1705.23618622 994.65010345 -1705.90987244 994.98770691 -1706.60397339 995.33554077 C-1715.76263208 999.92155889 -1724.96508789 1004.40315757 -1734.22119141 1008.78955078 C-1742.34448452 1012.65378093 -1750.39564263 1016.657495 -1758.4375 1020.6875 C-1759.44694168 1021.19330093 -1759.44694168 1021.19330093 -1760.47677612 1021.70932007 C-1765.31929136 1024.13667985 -1770.15984936 1026.56792944 -1775 1029 C-1780.51952688 1031.77344236 -1786.03985604 1034.54526884 -1791.5625 1037.3125 C-1792.23618622 1037.65010345 -1792.90987244 1037.98770691 -1793.60397339 1038.33554077 C-1802.76263208 1042.92155889 -1811.96508789 1047.40315757 -1821.22119141 1051.78955078 C-1829.34448452 1055.65378093 -1837.39564263 1059.657495 -1845.4375 1063.6875 C-1846.44694168 1064.19330093 -1846.44694168 1064.19330093 -1847.47677612 1064.70932007 C-1852.31929136 1067.13667985 -1857.15984936 1069.56792944 -1862 1072 C-1867.51952688 1074.77344236 -1873.03985604 1077.54526884 -1878.5625 1080.3125 C-1879.23618622 1080.65010345 -1879.90987244 1080.98770691 -1880.60397339 1081.33554077 C-1889.76263208 1085.92155889 -1898.96508789 1090.40315757 -1908.22119141 1094.78955078 C-1916.34448452 1098.65378093 -1924.39564263 1102.657495 -1932.4375 1106.6875 C-1933.44694168 1107.19330093 -1933.44694168 1107.19330093 -1934.47677612 1107.70932007 C-1939.31929136 1110.13667985 -1944.15984936 1112.56792944 -1949 1115 C-1954.51952688 1117.77344236 -1960.03985604 1120.54526884 -1965.5625 1123.3125 C-1966.23618622 1123.65010345 -1966.90987244 1123.98770691 -1967.60397339 1124.33554077 C-1976.76263208 1128.92155889 -1985.96508789 1133.40315757 -1995.22119141 1137.78955078 C-2003.34448452 1141.65378093 -2011.39564263 1145.657495 -2019.4375 1149.6875 C-2020.44694168 1150.19330093 -2020.44694168 1150.19330093 -2021.47677612 1150.70932007 C-2026.31929136 1153.13667985 -2031.15984936 1155.56792944 -2036 1158 C-2041.51952688 1160.77344236 -2047.03985604 1163.54526884 -2052.5625 1166.3125 C-2053.23618622 1166.65010345 -2053.90987244 1166.98770691 -2054.60397339 1167.33554077 C-2063.76263208 1171.92155889 -2072.96508789 1176.40315757 -2082.22119141 1180.78955078 C-2090.34448452 1184.65378093 -2098.39564263 1188.657495 -2106.4375 1192.6875 C-2107.44694168 1193.19330093 -2107.44694168 1193.19330093 -2108.47677612 1193.70932007 C-2113.31929136 1196.13667985 -2118.15984936 1198.56792944 -2123 1201 C-2128.51952688 1203.77344236 -2134.03985604 1206.54526884 -2139.5625 1209.3125 C-2140.23618622 1209.65010345 -2140.90987244 1209.98770691 -2141.60397339 1210.33554077 C-2150.76263208 1214.92155889 -2159.96508789 1219.40315757 -2169.22119141 1223.78955078 C-2177.34448452 1227.65378093 -2185.39564263 1231.657495 -2193.4375 1235.6875 C-2194.44694168 1236.19330093 -2194.44694168 1236.19330093 -2195.47677612 1236.70932007 C-2200.31929136 1239.13667985 -2205.15984936 1241.56792944 -2210 1244 C-2215.51952688 1246.77344236 -2221.03985604 1249.54526884 -2226.5625 1252.3125 C-2227.23618622 1252.65010345 -2227.90987244 1252.98770691 -2228.60397339 1253.33554077 C-2237.76263208 1257.92155889 -2246.96508789 1262.40315757 -2256.22119141 1266.78955078 C-2264.34448452 1270.65378093 -2272.39564263 1274.657495 -2280.4375 1278.6875 C-2281.44694168 1279.19330093 -2281.44694168 1279.19330093 -2282.47677612 1279.70932007 C-2287.31929136 1282.13667985 -2292.15984936 1284.56792944 -2297 1287 C-2302.51952688 1289.77344236 -2308.03985604 1292.54526884 -2313.5625 1295.3125 C-2314.23618622 1295.65010345 -2314.90987244 1295.98770691 -2315.60397339 1296.33554077 C-2324.76263208 1300.92155889 -2333.96508789 1305.40315757 -2343.22119141 1309.78955078 C-2351.34448452 1313.65378093 -2359.39564263 1317.657495 -2367.4375 1321.6875 C-2368.44694168 1322.19330093 -2368.44694168 1322.19330093 -2369.47677612 1322.70932007 C-2374.31929136 1325.13667985 -2379.15984936 1327.56792944 -2384 1330 C-2389.51952688 1332.77344236 -2395.03985604 1335.54526884 -2400.5625 1338.3125 C-2401.23618622 1338.65010345 -2401.90987244 1338.98770691 -2402.60397339 1339.33554077 C-2411.76263208 1343.92155889 -2420.96508789 1348.40315757 -2430.22119141 1352.78955078 C-2438.34448452 1356.65378093 -2446.39564263 1360.657495 -2454.4375 1364.6875 C-2455.11046112 1365.02470062 -2455.78342224 1365.36190125 -2456.47677612 1365.70932007 C-2461.31929136 1368.13667985 -2466.15984936 1370.56792944 -2471 1373 C-2476.51952688 1375.77344236 -2482.03985604 1378.54526884 -2487.5625 1381.3125 C-2488.23618622 1381.65010345 -2488.90987244 1381.98770691 -2489.60397339 1382.33554077 C-2498.76263208 1386.92155889 -2507.96508789 1391.40315757 -2517.22119141 1395.78955078 C-2525.34448452 1399.65378093 -2533.39564263 1403.657495 -2541.4375 1407.6875 C-2542.11046112 1408.02470062 -2542.78342224 1408.36190125 -2543.47677612 1408.70932007 C-2548.31929136 1411.13667985 -2553.15984936 1413.56792944 -2558 1416 C-2563.51952688 1418.77344236 -2569.03985604 1421.54526884 -2574.5625 1424.3125 C-2575.23618622 1424.65010345 -2575.90987244 1424.98770691 -2576.60397339 1425.33554077 C-2585.76263208 1429.92155889 -2594.96508789 1434.40315757 -2604.22119141 1438.78955078 C-2612.34448452 1442.65378093 -2620.39564263 1446.657495 -2628.4375 1450.6875 C-2629.11046112 1451.02470062 -2629.78342224 1451.36190125 -2630.47677612 1451.70932007 C-2635.31929136 1454.13667985 -2640.15984936 1456.56792944 -2645 1459 C-2650.51952688 1461.77344236 -2656.03985604 1464.54526884 -2661.5625 1467.3125 C-2662.23618622 1467.65010345 -2662.90987244 1467.98770691 -2663.60397339 1468.33554077 C-2672.76263208 1472.92155889 -2681.96508789 1477.40315757 -2691.22119141 1481.78955078 C-2699.34448452 1485.65378093 -2707.39564263 1489.657495 -2715.4375 1493.6875 C-2716.11046112 1494.02470062 -2716.78342224 1494.36190125 -2717.47677612 1494.70932007 C-2722.31929136 1497.13667985 -2727.15984936 1499.56792944 -2732 1502 C-2737.51952688 1504.77344236 -2743.03985604 1507.54526884 -2748.5625 1510.3125 C-2749.23618622 1510.65010345 -2749.90987244 1510.98770691 -2750.60397339 1511.33554077 C-2759.76263208 1515.92155889 -2768.96508789 1520.40315757 -2778.22119141 1524.78955078 C-2786.34448452 1528.65378093 -2794.39564263 1532.657495 -2802.4375 1536.6875 C-2803.11046112 1537.02470062 -2803.78342224 1537.36190125 -2804.47677612 1537.70932007 C-2809.31929136 1540.13667985 -2814.15984936 1542.56792944 -2819 1545 C-2824.51952688 1547.77344236 -2830.03985604 1550.54526884 -2835.5625 1553.3125 C-2836.23618622 1553.65010345 -2836.90987244 1553.98770691 -2837.60397339 1554.33554077 C-2846.76263208 1558.92155889 -2855.96508789 1563.40315757 -2865.22119141 1567.78955078 C-2873.34448452 1571.65378093 -2881.39564263 1575.657495 -2889.4375 1579.6875 C-2890.11046112 1580.02470062 -2890.78342224 1580.36190125 -2891.47677612 1580.70932007 C-2896.31929136 1583.13667985 -2901.15984936 1585.56792944 -2906 1588 C-2911.51952688 1590.77344236 -2917.03985604 1593.54526884 -2922.5625 1596.3125 C-2923.23618622 1596.65010345 -2923.90987244 1596.98770691 -2924.60397339 1597.33554077 C-2933.76263208 1601.92155889 -2942.96508789 1606.40315757 -2952.22119141 1610.78955078 C-2960.34448452 1614.65378093 -2968.39564263 1618.657495 -2976.4375 1622.6875 C-2977.11046112 1623.02470062 -2977.78342224 1623.36190125 -2978.47677612 1623.70932007 C-2983.31929136 1626.13667985 -2988.15984936 1628.56792944 -2993 1631 C-2998.51952688 1633.77344236 -3004.03985604 1636.54526884 -3009.5625 1639.3125 C-3010.23618622 1639.65010345 -3010.90987244 1639.98770691 -3011.60397339 1640.33554077 C-3020.76263208 1644.92155889 -3029.96508789 1649.40315757 -3039.22119141 1653.78955078 C-3047.34448452 1657.65378093 -3055.39564263 1661.657495 -3063.4375 1665.6875 C-3064.11046112 1666.02470062 -3064.78342224 1666.36190125 -3065.47677612 1666.70932007 C-3070.31929136 1669.13667985 -3075.15984936 1671.56792944 -3080 1674 C-3085.51952688 1676.77344236 -3091.03985604 1679.54526884 -3096.5625 1682.3125 C-3097.23618622 1682.65010345 -3097.90987244 1682.98770691 -3098.60397339 1683.33554077 C-3107.76263208 1687.92155889 -3116.96508789 1692.40315757 -3126.22119141 1696.78955078 C-3134.34448452 1700.65378093 -3142.39564263 1704.657495 -3150.4375 1708.6875 C-3151.11046112 1709.02470062 -3151.78342224 1709.36190125 -3152.47677612 1709.70932007 C-3157.31929136 1712.13667985 -3162.15984936 1714.56792944 -3167 1717 C-3172.51952688 1719.77344236 -3178.03985604 1722.54526884 -3183.5625 1725.3125 C-3184.23618622 1725.65010345 -3184.90987244 1725.98770691 -3185.60397339 1726.33554077 C-3194.76263208 1730.92155889 -3203.96508789 1735.40315757 -3213.22119141 1739.78955078 C-3221.34448452 1743.65378093 -3229.39564263 1747.657495 -3237.4375 1751.6875 C-3238.11046112 1752.02470062 -3238.78342224 1752.36190125 -3239.47677612 1752.70932007 C-3244.31929136 1755.13667985 -3249.15984936 1757.56792944 -3254 1760 C-3259.51952688 1762.77344236 -3265.03985604 1765.54526884 -3270.5625 1768.3125 C-3271.23618622 1768.65010345 -3271.90987244 1768.98770691 -3272.60397339 1769.33554077 C-3281.76263208 1773.92155889 -3290.96508789 1778.40315757 -3300.22119141 1782.78955078 C-3308.34448452 1786.65378093 -3316.39564263 1790.657495 -3324.4375 1794.6875 C-3325.11046112 1795.02470062 -3325.78342224 1795.36190125 -3326.47677612 1795.70932007 C-3331.31929136 1798.13667985 -3336.15984936 1800.56792944 -3341 1803 C-3346.51952688 1805.77344236 -3352.03985604 1808.54526884 -3357.5625 1811.3125 C-3358.23618622 1811.65010345 -3358.90987244 1811.98770691 -3359.60397339 1812.33554077 C-3368.76263208 1816.92155889 -3377.96508789 1821.40315757 -3387.22119141 1825.78955078 C-3395.34448452 1829.65378093 -3403.39564263 1833.657495 -3411.4375 1837.6875 C-3412.11046112 1838.02470062 -3412.78342224 1838.36190125 -3413.47677612 1838.70932007 C-3418.31929136 1841.13667985 -3423.15984936 1843.56792944 -3428 1846 C-3433.51952688 1848.77344236 -3439.03985604 1851.54526884 -3444.5625 1854.3125 C-3445.23618622 1854.65010345 -3445.90987244 1854.98770691 -3446.60397339 1855.33554077 C-3455.76263208 1859.92155889 -3464.96508789 1864.40315757 -3474.22119141 1868.78955078 C-3482.34448452 1872.65378093 -3490.39564263 1876.657495 -3498.4375 1880.6875 C-3499.11046112 1881.02470062 -3499.78342224 1881.36190125 -3500.47677612 1881.70932007 C-3505.31929136 1884.13667985 -3510.15984936 1886.56792944 -3515 1889 C-3520.51952688 1891.77344236 -3526.03985604 1894.54526884 -3531.5625 1897.3125 C-3532.23618622 1897.65010345 -3532.90987244 1897.98770691 -3533.60397339 1898.33554077 C-3542.76263208 1902.92155889 -3551.96508789 1907.40315757 -3561.22119141 1911.78955078 C-3569.34448452 1915.65378093 -3577.39564263 1919.657495 -3585.4375 1923.6875 C-3586.11046112 1924.02470062 -3586.78342224 1924.36190125 -3587.47677612 1924.70932007 C-3592.31929136 1927.13667985 -3597.15984936 1929.56792944 -3602 1932 C-3607.51952688 1934.77344236 -3613.03985604 1937.54526884 -3618.5625 1940.3125 C-3619.23618622 1940.65010345 -3619.90987244 1940.98770691 -3620.60397339 1941.33554077 C-3629.76263208 1945.92155889 -3638.96508789 1950.40315757 -3648.22119141 1954.78955078 C-3656.34448452 1958.65378093 -3664.39564263 1962.657495 -3672.4375 1966.6875 C-3673.11046112 1967.02470062 -3673.78342224 1967.36190125 -3674.47677612 1967.70932007 C-3679.31929136 1970.13667985 -3684.15984936 1972.56792944 -3689 1975 C-3694.51952688 1977.77344236 -3700.03985604 1980.54526884 -3705.5625 1983.3125 C-3706.23618622 1983.65010345 -3706.90987244 1983.98770691 -3707.60397339 1984.33554077 C-3716.76263208 1988.92155889 -3725.96508789 1993.40315757 -3735.22119141 1997.78955078 C-3743.34448452 2001.65378093 -3751.39564263 2005.657495 -3759.4375 2009.6875 C-3760.11046112 2010.02470062 -3760.78342224 2010.36190125 -3761.47677612 2010.70932007 C-3766.31929136 2013.13667985 -3771.15984936 2015.56792944 -3776 2018 C-3781.51952688 2020.77344236 -3787.03985604 2023.54526884 -3792.5625 2026.3125 C-3793.23618622 2026.65010345 -3793.90987244 2026.98770691 -3794.60397339 2027.33554077 C-3803.76263208 2031.92155889 -3812.96508789 2036.40315757 -3822.22119141 2040.78955078 C-3830.34448452 2044.65378093 -3838.39564263 2048.657495 -3846.4375 2052.6875 C-3847.11046112 2053.02470062 -3847.78342224 2053.36190125 -3848.47677612 2053.70932007 C-3853.31929136 2056.13667985 -3858.15984936 2058.56792944 -3863 2061 C-3868.51952688 2063.77344236 -3874.03985604 2066.54526884 -3879.5625 2069.3125 C-3880.57302933 2069.81890518 -3880.57302933 2069.81890518 -3881.60397339 2070.33554077 C-3890.76263208 2074.92155889 -3899.96508789 2079.40315757 -3909.22119141 2083.78955078 C-3917.34448452 2087.65378093 -3925.39564263 2091.657495 -3933.4375 2095.6875 C-3934.11046112 2096.02470062 -3934.78342224 2096.36190125 -3935.47677612 2096.70932007 C-3940.31929136 2099.13667985 -3945.15984936 2101.56792944 -3950 2104 C-3955.51952688 2106.77344236 -3961.03985604 2109.54526884 -3966.5625 2112.3125 C-3967.57302933 2112.81890518 -3967.57302933 2112.81890518 -3968.60397339 2113.33554077 C-3977.76263208 2117.92155889 -3986.96508789 2122.40315757 -3996.22119141 2126.78955078 C-4004.34448452 2130.65378093 -4012.39564263 2134.657495 -4020.4375 2138.6875 C-4021.11046112 2139.02470062 -4021.78342224 2139.36190125 -4022.47677612 2139.70932007 C-4027.31929136 2142.13667985 -4032.15984936 2144.56792944 -4037 2147 C-4042.51952688 2149.77344236 -4048.03985604 2152.54526884 -4053.5625 2155.3125 C-4054.23618622 2155.65010345 -4054.90987244 2155.98770691 -4055.60397339 2156.33554077 C-4064.76263208 2160.92155889 -4073.96508789 2165.40315757 -4083.22119141 2169.78955078 C-4091.34448452 2173.65378093 -4099.39564263 2177.657495 -4107.4375 2181.6875 C-4108.11046112 2182.02470062 -4108.78342224 2182.36190125 -4109.47677612 2182.70932007 C-4114.31929136 2185.13667985 -4119.15984936 2187.56792944 -4124 2190 C-4141.50697924 2198.79687679 -4159.02413939 2207.54379367 -4176.73504639 2215.92572021 C-4179.75855803 2217.35978819 -4182.77238686 2218.81303317 -4185.78515625 2220.26953125 C-4186.68556641 2220.70330078 -4187.58597656 2221.13707031 -4188.51367188 2221.58398438 C-4190.24905968 2222.420428 -4191.98339571 2223.25905649 -4193.71679688 2224.09960938 C-4195.47542257 2224.94512702 -4197.24226046 2225.77382887 -4199.01782036 2226.58318138 C-4201.98820236 2227.94587737 -4201.98820236 2227.94587737 -4204.67469978 2229.54299355 C-4216.6851007 2235.82660151 -4229.31459754 2234.7985949 -4242.55810547 2234.68115234 C-4245.23997619 2234.67945783 -4247.92174844 2234.68015046 -4250.60360718 2234.68380737 C-4256.35374723 2234.68693689 -4262.10347535 2234.66828766 -4267.85351181 2234.63438034 C-4276.16678305 2234.58539011 -4284.47985732 2234.56996855 -4292.79325725 2234.56245239 C-4306.28464737 2234.5493561 -4319.77581847 2234.50952344 -4333.26708984 2234.45263672 C-4346.36408399 2234.39747029 -4359.46101842 2234.35504509 -4372.55810547 2234.32958984 C-4373.36689014 2234.3280135 -4374.17567481 2234.32643716 -4375.0089681 2234.32481305 C-4379.06684623 2234.31698221 -4383.12472477 2234.30940011 -4387.1826036 2234.30194163 C-4420.78856269 2234.23985191 -4454.39425072 2234.13382095 -4488 2234 C-4488 2230.04 -4488 2226.08 -4488 2222 C-4486.60724854 2221.33645508 -4485.21449707 2220.67291016 -4483.77954102 2219.98925781 C-4469.79466931 2213.31865661 -4455.84874076 2206.57274757 -4441.9375 2199.75 C-4440.85813171 2199.22107147 -4439.77876343 2198.69214294 -4438.66668701 2198.14718628 C-4423.0813953 2190.5050797 -4407.53570286 2182.78538165 -4392.01171875 2175.01953125 C-4391.15079809 2174.58887486 -4390.28987743 2174.15821846 -4389.40286827 2173.71451187 C-4380.78115676 2169.40101113 -4372.16148449 2165.08346729 -4363.54534435 2160.75884819 C-4334.41491923 2146.13939869 -4334.41491923 2146.13939869 -4322.9921875 2140.74609375 C-4311.86888568 2135.48952474 -4300.87487915 2129.97741119 -4289.875 2124.46875 C-4288.91590603 2123.98848295 -4287.95681206 2123.5082159 -4286.96865463 2123.01339531 C-4279.97768782 2119.51175107 -4272.9886567 2116.00625199 -4266 2112.5 C-4258.04293144 2108.50788983 -4250.08511619 2104.51728046 -4242.125 2100.53125 C-4241.16375214 2100.04986572 -4240.20250427 2099.56848145 -4239.21212769 2099.07250977 C-4228.49833131 2093.71009867 -4217.76940496 2088.39836518 -4206.93286133 2083.28747559 C-4196.98647672 2078.56870646 -4187.15556253 2073.61699508 -4177.3125 2068.6875 C-4176.37466675 2068.21786331 -4175.4368335 2067.74822662 -4174.47058105 2067.26435852 C-4167.64563732 2063.84572919 -4160.82263112 2060.42324177 -4154 2057 C-4146.23043371 2053.10163537 -4138.46011817 2049.20477685 -4130.6875 2045.3125 C-4129.74773315 2044.84185623 -4128.80796631 2044.37121246 -4127.83972168 2043.88630676 C-4118.11833134 2039.02049718 -4108.39545739 2034.16881354 -4098.5625 2029.53125 C-4087.58024721 2024.35091186 -4076.73172272 2018.90569901 -4065.875 2013.46875 C-4064.9152829 2012.98817139 -4063.9555658 2012.50759277 -4062.96676636 2012.01245117 C-4055.97642893 2008.51112174 -4048.9880277 2005.00593642 -4042 2001.5 C-4034.04293144 1997.50788983 -4026.08511619 1993.51728046 -4018.125 1989.53125 C-4017.16375214 1989.04986572 -4016.20250427 1988.56848145 -4015.21212769 1988.07250977 C-4004.49833131 1982.71009867 -3993.76940496 1977.39836518 -3982.93286133 1972.28747559 C-3972.98647672 1967.56870646 -3963.15556253 1962.61699508 -3953.3125 1957.6875 C-3952.37466675 1957.21786331 -3951.4368335 1956.74822662 -3950.47058105 1956.26435852 C-3943.64563732 1952.84572919 -3936.82263112 1949.42324177 -3930 1946 C-3922.23043371 1942.10163537 -3914.46011794 1938.20477731 -3906.6875 1934.3125 C-3905.27834824 1933.6067836 -3905.27834824 1933.6067836 -3903.84072876 1932.8868103 C-3893.26770704 1927.59473463 -3882.67754522 1922.35787161 -3871.98388672 1917.31298828 C-3862.02090115 1912.58482274 -3852.17257834 1907.62551957 -3842.3125 1902.6875 C-3841.37475739 1902.21790863 -3840.43701477 1901.74831726 -3839.47085571 1901.26449585 C-3832.64582044 1897.84582073 -3825.82272261 1894.42328767 -3819 1891 C-3811.23043371 1887.10163537 -3803.46011817 1883.20477685 -3795.6875 1879.3125 C-3794.74773315 1878.84185623 -3793.80796631 1878.37121246 -3792.83972168 1877.88630676 C-3783.11833134 1873.02049718 -3773.39545739 1868.16881354 -3763.5625 1863.53125 C-3752.58024721 1858.35091186 -3741.73172272 1852.90569901 -3730.875 1847.46875 C-3729.43542435 1846.74788208 -3729.43542435 1846.74788208 -3727.96676636 1846.01245117 C-3720.97642893 1842.51112174 -3713.9880277 1839.00593642 -3707 1835.5 C-3699.04293144 1831.50788983 -3691.08511619 1827.51728046 -3683.125 1823.53125 C-3682.16375214 1823.04986572 -3681.20250427 1822.56848145 -3680.21212769 1822.07250977 C-3669.49833131 1816.71009867 -3658.76940496 1811.39836518 -3647.93286133 1806.28747559 C-3637.98647672 1801.56870646 -3628.15556253 1796.61699508 -3618.3125 1791.6875 C-3617.37466675 1791.21786331 -3616.4368335 1790.74822662 -3615.47058105 1790.26435852 C-3608.64563732 1786.84572919 -3601.82263112 1783.42324177 -3595 1780 C-3587.23043371 1776.10163537 -3579.46011817 1772.20477685 -3571.6875 1768.3125 C-3570.74773315 1767.84185623 -3569.80796631 1767.37121246 -3568.83972168 1766.88630676 C-3559.11833134 1762.02049718 -3549.39545739 1757.16881354 -3539.5625 1752.53125 C-3528.58024721 1747.35091186 -3517.73172272 1741.90569901 -3506.875 1736.46875 C-3505.43542435 1735.74788208 -3505.43542435 1735.74788208 -3503.96676636 1735.01245117 C-3496.97642893 1731.51112174 -3489.9880277 1728.00593642 -3483 1724.5 C-3475.04293144 1720.50788983 -3467.08511619 1716.51728046 -3459.125 1712.53125 C-3457.6831282 1711.80917358 -3457.6831282 1711.80917358 -3456.21212769 1711.07250977 C-3445.49833131 1705.71009867 -3434.76940496 1700.39836518 -3423.93286133 1695.28747559 C-3413.98647672 1690.56870646 -3404.15556253 1685.61699508 -3394.3125 1680.6875 C-3392.90575012 1679.98304497 -3392.90575012 1679.98304497 -3391.47058105 1679.26435852 C-3384.64563732 1675.84572919 -3377.82263112 1672.42324177 -3371 1669 C-3363.23043371 1665.10163537 -3355.46011794 1661.20477731 -3347.6875 1657.3125 C-3346.27834824 1656.6067836 -3346.27834824 1656.6067836 -3344.84072876 1655.8868103 C-3334.26770704 1650.59473463 -3323.67754522 1645.35787161 -3312.98388672 1640.31298828 C-3303.02090115 1635.58482274 -3293.17257834 1630.62551957 -3283.3125 1625.6875 C-3282.37475739 1625.21790863 -3281.43701477 1624.74831726 -3280.47085571 1624.26449585 C-3273.64582044 1620.84582073 -3266.82272261 1617.42328767 -3260 1614 C-3252.23043371 1610.10163537 -3244.46011817 1606.20477685 -3236.6875 1602.3125 C-3235.27784973 1601.60653435 -3235.27784973 1601.60653435 -3233.83972168 1600.88630676 C-3224.11833134 1596.02049718 -3214.39545739 1591.16881354 -3204.5625 1586.53125 C-3193.58024721 1581.35091186 -3182.73172272 1575.90569901 -3171.875 1570.46875 C-3170.9152829 1569.98817139 -3169.9555658 1569.50759277 -3168.96676636 1569.01245117 C-3161.97642893 1565.51112174 -3154.9880277 1562.00593642 -3148 1558.5 C-3140.04293144 1554.50788983 -3132.08511619 1550.51728046 -3124.125 1546.53125 C-3122.6831282 1545.80917358 -3122.6831282 1545.80917358 -3121.21212769 1545.07250977 C-3110.49833131 1539.71009867 -3099.76940496 1534.39836518 -3088.93286133 1529.28747559 C-3078.98647672 1524.56870646 -3069.15556253 1519.61699508 -3059.3125 1514.6875 C-3057.90575012 1513.98304497 -3057.90575012 1513.98304497 -3056.47058105 1513.26435852 C-3049.64563732 1509.84572919 -3042.82263112 1506.42324177 -3036 1503 C-3028.23043371 1499.10163537 -3020.46011817 1495.20477685 -3012.6875 1491.3125 C-3011.27784973 1490.60653435 -3011.27784973 1490.60653435 -3009.83972168 1489.88630676 C-3000.11833134 1485.02049718 -2990.39545739 1480.16881354 -2980.5625 1475.53125 C-2969.58024721 1470.35091186 -2958.73172272 1464.90569901 -2947.875 1459.46875 C-2946.9152829 1458.98817139 -2945.9555658 1458.50759277 -2944.96676636 1458.01245117 C-2937.97642893 1454.51112174 -2930.9880277 1451.00593642 -2924 1447.5 C-2916.04293144 1443.50788983 -2908.08511619 1439.51728046 -2900.125 1435.53125 C-2898.6831282 1434.80917358 -2898.6831282 1434.80917358 -2897.21212769 1434.07250977 C-2886.49833131 1428.71009867 -2875.76940496 1423.39836518 -2864.93286133 1418.28747559 C-2854.98647672 1413.56870646 -2845.15556253 1408.61699508 -2835.3125 1403.6875 C-2833.90575012 1402.98304497 -2833.90575012 1402.98304497 -2832.47058105 1402.26435852 C-2825.64563732 1398.84572919 -2818.82263112 1395.42324177 -2812 1392 C-2804.23043371 1388.10163537 -2796.46011794 1384.20477731 -2788.6875 1380.3125 C-2787.27834824 1379.6067836 -2787.27834824 1379.6067836 -2785.84072876 1378.8868103 C-2775.26770704 1373.59473463 -2764.67754522 1368.35787161 -2753.98388672 1363.31298828 C-2744.02090115 1358.58482274 -2734.17257834 1353.62551957 -2724.3125 1348.6875 C-2723.37475739 1348.21790863 -2722.43701477 1347.74831726 -2721.47085571 1347.26449585 C-2714.64582044 1343.84582073 -2707.82272261 1340.42328767 -2701 1337 C-2693.23043371 1333.10163537 -2685.46011817 1329.20477685 -2677.6875 1325.3125 C-2676.27784973 1324.60653435 -2676.27784973 1324.60653435 -2674.83972168 1323.88630676 C-2665.11833134 1319.02049718 -2655.39545739 1314.16881354 -2645.5625 1309.53125 C-2634.58024721 1304.35091186 -2623.73172272 1298.90569901 -2612.875 1293.46875 C-2611.9152829 1292.98817139 -2610.9555658 1292.50759277 -2609.96676636 1292.01245117 C-2602.97642893 1288.51112174 -2595.9880277 1285.00593642 -2589 1281.5 C-2581.04293144 1277.50788983 -2573.08511619 1273.51728046 -2565.125 1269.53125 C-2563.6831282 1268.80917358 -2563.6831282 1268.80917358 -2562.21212769 1268.07250977 C-2551.49833131 1262.71009867 -2540.76940496 1257.39836518 -2529.93286133 1252.28747559 C-2519.98647672 1247.56870646 -2510.15556253 1242.61699508 -2500.3125 1237.6875 C-2498.90575012 1236.98304497 -2498.90575012 1236.98304497 -2497.47058105 1236.26435852 C-2490.64563732 1232.84572919 -2483.82263112 1229.42324177 -2477 1226 C-2469.23043371 1222.10163537 -2461.46011817 1218.20477685 -2453.6875 1214.3125 C-2452.27784973 1213.60653435 -2452.27784973 1213.60653435 -2450.83972168 1212.88630676 C-2441.11833134 1208.02049718 -2431.39545739 1203.16881354 -2421.5625 1198.53125 C-2410.58024721 1193.35091186 -2399.73172272 1187.90569901 -2388.875 1182.46875 C-2387.9152829 1181.98817139 -2386.9555658 1181.50759277 -2385.96676636 1181.01245117 C-2378.97642893 1177.51112174 -2371.9880277 1174.00593642 -2365 1170.5 C-2357.04293144 1166.50788983 -2349.08511619 1162.51728046 -2341.125 1158.53125 C-2339.6831282 1157.80917358 -2339.6831282 1157.80917358 -2338.21212769 1157.07250977 C-2327.49833131 1151.71009867 -2316.76940496 1146.39836518 -2305.93286133 1141.28747559 C-2295.98647672 1136.56870646 -2286.15556253 1131.61699508 -2276.3125 1126.6875 C-2274.90575012 1125.98304497 -2274.90575012 1125.98304497 -2273.47058105 1125.26435852 C-2266.64563732 1121.84572919 -2259.82263112 1118.42324177 -2253 1115 C-2245.23043371 1111.10163537 -2237.46011794 1107.20477731 -2229.6875 1103.3125 C-2228.27834824 1102.6067836 -2228.27834824 1102.6067836 -2226.84072876 1101.8868103 C-2216.26770704 1096.59473463 -2205.67754522 1091.35787161 -2194.98388672 1086.31298828 C-2185.02090115 1081.58482274 -2175.17257834 1076.62551957 -2165.3125 1071.6875 C-2163.90588608 1070.98311295 -2163.90588608 1070.98311295 -2162.47085571 1070.26449585 C-2155.64582044 1066.84582073 -2148.82272261 1063.42328767 -2142 1060 C-2134.23043371 1056.10163537 -2126.46011817 1052.20477685 -2118.6875 1048.3125 C-2117.27784973 1047.60653435 -2117.27784973 1047.60653435 -2115.83972168 1046.88630676 C-2106.11833134 1042.02049718 -2096.39545739 1037.16881354 -2086.5625 1032.53125 C-2075.58024721 1027.35091186 -2064.73172272 1021.90569901 -2053.875 1016.46875 C-2052.9152829 1015.98817139 -2051.9555658 1015.50759277 -2050.96676636 1015.01245117 C-2043.97642893 1011.51112174 -2036.9880277 1008.00593642 -2030 1004.5 C-2022.04293144 1000.50788983 -2014.08511619 996.51728046 -2006.125 992.53125 C-2004.6831282 991.80917358 -2004.6831282 991.80917358 -2003.21212769 991.07250977 C-1992.49833131 985.71009867 -1981.76940496 980.39836518 -1970.93286133 975.28747559 C-1960.98647672 970.56870646 -1951.15556253 965.61699508 -1941.3125 960.6875 C-1939.90575012 959.98304497 -1939.90575012 959.98304497 -1938.47058105 959.26435852 C-1931.64563732 955.84572919 -1924.82263112 952.42324177 -1918 949 C-1910.23043371 945.10163537 -1902.46011817 941.20477685 -1894.6875 937.3125 C-1893.27784973 936.60653435 -1893.27784973 936.60653435 -1891.83972168 935.88630676 C-1882.11833134 931.02049718 -1872.39545739 926.16881354 -1862.5625 921.53125 C-1851.58024721 916.35091186 -1840.73172272 910.90569901 -1829.875 905.46875 C-1828.9152829 904.98817139 -1827.9555658 904.50759277 -1826.96676636 904.01245117 C-1819.97642893 900.51112174 -1812.9880277 897.00593642 -1806 893.5 C-1798.04293144 889.50788983 -1790.08511619 885.51728046 -1782.125 881.53125 C-1780.6831282 880.80917358 -1780.6831282 880.80917358 -1779.21212769 880.07250977 C-1768.49833131 874.71009867 -1757.76940496 869.39836518 -1746.93286133 864.28747559 C-1736.98647672 859.56870646 -1727.15556253 854.61699508 -1717.3125 849.6875 C-1715.90575012 848.98304497 -1715.90575012 848.98304497 -1714.47058105 848.26435852 C-1707.64563732 844.84572919 -1700.82263112 841.42324177 -1694 838 C-1686.23043371 834.10163537 -1678.46011794 830.20477731 -1670.6875 826.3125 C-1669.27834824 825.6067836 -1669.27834824 825.6067836 -1667.84072876 824.8868103 C-1657.26770704 819.59473463 -1646.67754522 814.35787161 -1635.98388672 809.31298828 C-1626.02090115 804.58482274 -1616.17257834 799.62551957 -1606.3125 794.6875 C-1604.90588608 793.98311295 -1604.90588608 793.98311295 -1603.47085571 793.26449585 C-1596.64582044 789.84582073 -1589.82272261 786.42328767 -1583 783 C-1575.23043371 779.10163537 -1567.46011817 775.20477685 -1559.6875 771.3125 C-1558.27784973 770.60653435 -1558.27784973 770.60653435 -1556.83972168 769.88630676 C-1547.11833134 765.02049718 -1537.39545739 760.16881354 -1527.5625 755.53125 C-1516.58024721 750.35091186 -1505.73172272 744.90569901 -1494.875 739.46875 C-1493.9152829 738.98817139 -1492.9555658 738.50759277 -1491.96676636 738.01245117 C-1484.97642893 734.51112174 -1477.9880277 731.00593642 -1471 727.5 C-1463.04293144 723.50788983 -1455.08511619 719.51728046 -1447.125 715.53125 C-1445.6831282 714.80917358 -1445.6831282 714.80917358 -1444.21212769 714.07250977 C-1433.49833131 708.71009867 -1422.76940496 703.39836518 -1411.93286133 698.28747559 C-1401.98647672 693.56870646 -1392.15556253 688.61699508 -1382.3125 683.6875 C-1380.90575012 682.98304497 -1380.90575012 682.98304497 -1379.47058105 682.26435852 C-1372.64563732 678.84572919 -1365.82263112 675.42324177 -1359 672 C-1351.23043371 668.10163537 -1343.46011817 664.20477685 -1335.6875 660.3125 C-1334.27784973 659.60653435 -1334.27784973 659.60653435 -1332.83972168 658.88630676 C-1323.11833134 654.02049718 -1313.39545739 649.16881354 -1303.5625 644.53125 C-1292.58024721 639.35091186 -1281.73172272 633.90569901 -1270.875 628.46875 C-1269.9152829 627.98817139 -1268.9555658 627.50759277 -1267.96676636 627.01245117 C-1260.97642893 623.51112174 -1253.9880277 620.00593642 -1247 616.5 C-1239.04293144 612.50788983 -1231.08511619 608.51728046 -1223.125 604.53125 C-1221.6831282 603.80917358 -1221.6831282 603.80917358 -1220.21212769 603.07250977 C-1209.49833131 597.71009867 -1198.76940496 592.39836518 -1187.93286133 587.28747559 C-1177.98647672 582.56870646 -1168.15556253 577.61699508 -1158.3125 572.6875 C-1156.90575012 571.98304497 -1156.90575012 571.98304497 -1155.47058105 571.26435852 C-1148.64563732 567.84572919 -1141.82263112 564.42324177 -1135 561 C-1127.23043371 557.10163537 -1119.46011794 553.20477731 -1111.6875 549.3125 C-1110.27834824 548.6067836 -1110.27834824 548.6067836 -1108.84072876 547.8868103 C-1098.26770704 542.59473463 -1087.67754522 537.35787161 -1076.98388672 532.31298828 C-1067.02090115 527.58482274 -1057.17257834 522.62551957 -1047.3125 517.6875 C-1045.90588608 516.98311295 -1045.90588608 516.98311295 -1044.47085571 516.26449585 C-1037.64582044 512.84582073 -1030.82272261 509.42328767 -1024 506 C-1016.23043371 502.10163537 -1008.46011817 498.20477685 -1000.6875 494.3125 C-999.27784973 493.60653435 -999.27784973 493.60653435 -997.83972168 492.88630676 C-988.11833134 488.02049718 -978.39545739 483.16881354 -968.5625 478.53125 C-957.58024721 473.35091186 -946.73172272 467.90569901 -935.875 462.46875 C-934.9152829 461.98817139 -933.9555658 461.50759277 -932.96676636 461.01245117 C-925.97642893 457.51112174 -918.9880277 454.00593642 -912 450.5 C-904.04293144 446.50788983 -896.08511619 442.51728046 -888.125 438.53125 C-886.6831282 437.80917358 -886.6831282 437.80917358 -885.21212769 437.07250977 C-874.49833131 431.71009867 -863.76940496 426.39836518 -852.93286133 421.28747559 C-842.98647672 416.56870646 -833.15556253 411.61699508 -823.3125 406.6875 C-821.90575012 405.98304497 -821.90575012 405.98304497 -820.47058105 405.26435852 C-813.64563732 401.84572919 -806.82263112 398.42324177 -800 395 C-792.23043371 391.10163537 -784.46011817 387.20477685 -776.6875 383.3125 C-775.27784973 382.60653435 -775.27784973 382.60653435 -773.83972168 381.88630676 C-764.11833134 377.02049718 -754.39545739 372.16881354 -744.5625 367.53125 C-733.58024721 362.35091186 -722.73172272 356.90569901 -711.875 351.46875 C-710.9152829 350.98817139 -709.9555658 350.50759277 -708.96676636 350.01245117 C-701.97642893 346.51112174 -694.9880277 343.00593642 -688 339.5 C-680.04293144 335.50788983 -672.08511619 331.51728046 -664.125 327.53125 C-662.6831282 326.80917358 -662.6831282 326.80917358 -661.21212769 326.07250977 C-650.49833131 320.71009867 -639.76940496 315.39836518 -628.93286133 310.28747559 C-618.98647672 305.56870646 -609.15556253 300.61699508 -599.3125 295.6875 C-597.90575012 294.98304497 -597.90575012 294.98304497 -596.47058105 294.26435852 C-589.64563732 290.84572919 -582.82263112 287.42324177 -576 284 C-568.23043371 280.10163537 -560.46011794 276.20477731 -552.6875 272.3125 C-551.74806549 271.8420224 -550.80863098 271.3715448 -549.84072876 270.8868103 C-539.26770704 265.59473463 -528.67754522 260.35787161 -517.98388672 255.31298828 C-508.02090115 250.58482274 -498.17257834 245.62551957 -488.3125 240.6875 C-486.90588608 239.98311295 -486.90588608 239.98311295 -485.47085571 239.26449585 C-478.64582044 235.84582073 -471.82272261 232.42328767 -465 229 C-457.23043371 225.10163537 -449.46011817 221.20477685 -441.6875 217.3125 C-440.74773315 216.84185623 -439.80796631 216.37121246 -438.83972168 215.88630676 C-429.11833134 211.02049718 -419.39545739 206.16881354 -409.5625 201.53125 C-398.58024721 196.35091186 -387.73172272 190.90569901 -376.875 185.46875 C-375.9152829 184.98817139 -374.9555658 184.50759277 -373.96676636 184.01245117 C-366.97642893 180.51112174 -359.9880277 177.00593642 -353 173.5 C-345.04293144 169.50788983 -337.08511619 165.51728046 -329.125 161.53125 C-328.16375214 161.04986572 -327.20250427 160.56848145 -326.21212769 160.07250977 C-315.49833131 154.71009867 -304.76940496 149.39836518 -293.93286133 144.28747559 C-283.98647672 139.56870646 -274.15556253 134.61699508 -264.3125 129.6875 C-263.37466675 129.21786331 -262.4368335 128.74822662 -261.47058105 128.26435852 C-254.64563732 124.84572919 -247.82263112 121.42324177 -241 118 C-233.23043371 114.10163537 -225.46011817 110.20477685 -217.6875 106.3125 C-216.27784973 105.60653435 -216.27784973 105.60653435 -214.83972168 104.88630676 C-205.11833134 100.02049718 -195.39545739 95.16881354 -185.5625 90.53125 C-174.58024721 85.35091186 -163.73172272 79.90569901 -152.875 74.46875 C-151.9152829 73.98817139 -150.9555658 73.50759277 -149.96676636 73.01245117 C-142.97642893 69.51112174 -135.9880277 66.00593642 -129 62.5 C-121.04293144 58.50788983 -113.08511108 54.51729069 -105.125 50.53125 C-104.17127125 50.05362528 -103.2175425 49.57600056 -102.23491287 49.08390236 C-91.00078404 43.46100267 -79.75029581 37.88941003 -68.3934021 32.51774597 C-58.72388314 27.94294566 -49.17736869 23.12593592 -39.625 18.3125 C-29.56783413 13.24517179 -19.50976506 8.18562118 -9.3359375 3.35546875 C-8.62128326 3.0135701 -7.90662903 2.67167145 -7.1703186 2.31941223 C-2.23923688 0 -2.23923688 0 0 0 Z " fill="#D97757" transform="translate(4488,2230)"/>
</svg>
