<?xml version="1.0" encoding="UTF-8"?>
<svg version="1.1" xmlns="http://www.w3.org/2000/svg" width="4488" height="4464">
<path d="M0 0 C1481.04 0 2962.08 0 4488 0 C4488 1473.12 4488 2946.24 4488 4464 C3006.96 4464 1525.92 4464 0 4464 C0 2990.88 0 1517.76 0 0 Z " fill="#F5F5E6" transform="translate(0,0)"/>
<path d="M0 0 C1481.04 0 2962.08 0 4488 0 C4488 359.04 4488 718.08 4488 1088 C4469.61876978 1097.19061511 4469.61876978 1097.19061511 4462.83984375 1100.3046875 C4462.05898911 1100.66592209 4461.27813446 1101.02715668 4460.47361755 1101.39933777 C4457.96266012 1102.56025082 4455.45011117 1103.71767118 4452.9375 1104.875 C4451.13808294 1105.70608094 4449.33876871 1106.53738453 4447.53955078 1107.36889648 C4442.92412399 1109.50123286 4438.3073654 1111.63066871 4433.69024658 1113.75933838 C4429.46846958 1115.70629623 4425.24793038 1117.65593213 4421.02734375 1119.60546875 C4413.77276895 1122.95594387 4406.51707805 1126.30399328 4399.26081848 1129.65081787 C4391.15305054 1133.3904324 4383.04624113 1137.13212244 4374.93951416 1140.87399292 C4370.87638204 1142.74941369 4366.81318791 1144.62470011 4362.75 1146.5 C4361.1249997 1147.24999935 4359.4999997 1147.99999935 4357.875 1148.75 C4277.4375 1185.875 4197 1223 94.6877594 3116.37487793 C93.06189235 3117.12527967 91.43602769 3117.87568658 89.81016541 3118.62609863 C85.76095069 3120.49499424 81.71169531 3122.36380163 77.66235352 3124.23242188 C69.32475917 3128.08003305 60.98794473 3131.92932208 52.65234375 3135.78125 C43.79407524 3139.87447948 34.9334763 3143.96262778 26.07055664 3148.04577637 C24.11249068 3148.94815826 22.15482545 3149.85140358 20.19726562 3150.75488281 C17.02918022 3152.21563285 13.85890434 3153.67147323 10.6875 3155.125 C9.80441162 3155.53298828 8.92132324 3155.94097656 8.01147461 3156.36132812 C2.2307626 3159 2.2307626 3159 0 3159 C0 2116.53 0 1074.06 0 0 Z " fill="#181814" transform="translate(0,0)"/>
<path d="M0 0 C0 687.39 0 1374.78 0 2083 C-1391.28 2083 -2782.56 2083 -4216 2083 C-4213.72030606 2080.72030606 -4211.84311269 2079.93818909 -4208.8828125 2078.671875 C-4207.81514648 2078.209021 -4206.74748047 2077.74616699 -4205.64746094 2077.26928711 C-4203.90384277 2076.51723999 -4203.90384277 2076.51723999 -4202.125 2075.75 C-4191.11089243 2070.93224947 -4180.32376996 2065.79799105 -4169.60986328 2060.33691406 C-4162.66787107 2056.80478079 -4155.67688244 2053.40600976 -4148.640625 2050.06640625 C-4139.22600469 2045.58972165 -4129.88188564 2040.9830965 -4120.5625 2036.3125 C-4119.89119301 2035.97612078 -4119.21988602 2035.63974155 -4118.52823639 2035.29316902 C-4113.68405095 2032.86497821 -4108.84181756 2030.43290815 -4104 2028 C-4098.48047312 2025.22655764 -4092.96014396 2022.45473116 -4087.4375 2019.6875 C-4086.76381378 2019.34989655 -4086.09012756 2019.01229309 -4085.39602661 2018.66445923 C-4076.23736792 2014.07844111 -4067.03491211 2009.59684243 -4057.77880859 2005.21044922 C-4049.65551548 2001.34621907 -4041.60435737 1997.342505 -4033.5625 1993.3125 C-4032.88953888 1992.97529938 -4032.21657776 1992.63809875 -4031.52322388 1992.29067993 C-4026.68070864 1989.86332015 -4021.84015064 1987.43207056 -4017 1985 C-4011.48047312 1982.22655764 -4005.96014396 1979.45473116 -4000.4375 1976.6875 C-3999.76381378 1976.34989655 -3999.09012756 1976.01229309 -3998.39602661 1975.66445923 C-3989.23736792 1971.07844111 -3980.03491211 1966.59684243 -3970.77880859 1962.21044922 C-3962.65551548 1958.34621907 -3954.60435737 1954.342505 -3946.5625 1950.3125 C-3945.88953888 1949.97529938 -3945.21657776 1949.63809875 -3944.52322388 1949.29067993 C-3939.68070864 1946.86332015 -3934.84015064 1944.43207056 -3930 1942 C-3924.48047312 1939.22655764 -3918.96014396 1936.45473116 -3913.4375 1933.6875 C-3912.76381378 1933.34989655 -3912.09012756 1933.01229309 -3911.39602661 1932.66445923 C-3902.23736792 1928.07844111 -3893.03491211 1923.59684243 -3883.77880859 1919.21044922 C-3875.65551548 1915.34621907 -3867.60435737 1911.342505 -3859.5625 1907.3125 C-3858.88953888 1906.97529938 -3858.21657776 1906.63809875 -3857.52322388 1906.29067993 C-3852.68070864 1903.86332015 -3847.84015064 1901.43207056 -3843 1899 C-3837.48047312 1896.22655764 -3831.96014396 1893.45473116 -3826.4375 1890.6875 C-3825.76381378 1890.34989655 -3825.09012756 1890.01229309 -3824.39602661 1889.66445923 C-3815.23736792 1885.07844111 -3806.03491211 1880.59684243 -3796.77880859 1876.21044922 C-3788.65551548 1872.34621907 -3780.60435737 1868.342505 -3772.5625 1864.3125 C-3771.88953888 1863.97529938 -3771.21657776 1863.63809875 -3770.52322388 1863.29067993 C-3765.68070864 1860.86332015 -3760.84015064 1858.43207056 -3756 1856 C-3750.48047312 1853.22655764 -3744.96014396 1850.45473116 -3739.4375 1847.6875 C-3738.76381378 1847.34989655 -3738.09012756 1847.01229309 -3737.39602661 1846.66445923 C-3728.23736792 1842.07844111 -3719.03491211 1837.59684243 -3709.77880859 1833.21044922 C-3701.65551548 1829.34621907 -3693.60435737 1825.342505 -3685.5625 1821.3125 C-3684.88953888 1820.97529938 -3684.21657776 1820.63809875 -3683.52322388 1820.29067993 C-3678.68070864 1817.86332015 -3673.84015064 1815.43207056 -3669 1813 C-3663.48047312 1810.22655764 -3657.96014396 1807.45473116 -3652.4375 1804.6875 C-3651.76381378 1804.34989655 -3651.09012756 1804.01229309 -3650.39602661 1803.66445923 C-3641.23736792 1799.07844111 -3632.03491211 1794.59684243 -3622.77880859 1790.21044922 C-3614.65551548 1786.34621907 -3606.60435737 1782.342505 -3598.5625 1778.3125 C-3597.88953888 1777.97529938 -3597.21657776 1777.63809875 -3596.52322388 1777.29067993 C-3591.68070864 1774.86332015 -3586.84015064 1772.43207056 -3582 1770 C-3576.48047312 1767.22655764 -3570.96014396 1764.45473116 -3565.4375 1761.6875 C-3564.76381378 1761.34989655 -3564.09012756 1761.01229309 -3563.39602661 1760.66445923 C-3554.23736792 1756.07844111 -3545.03491211 1751.59684243 -3535.77880859 1747.21044922 C-3527.65551548 1743.34621907 -3519.60435737 1739.342505 -3511.5625 1735.3125 C-3510.88953888 1734.97529938 -3510.21657776 1734.63809875 -3509.52322388 1734.29067993 C-3504.68070864 1731.86332015 -3499.84015064 1729.43207056 -3495 1727 C-3489.48047312 1724.22655764 -3483.96014396 1721.45473116 -3478.4375 1718.6875 C-3477.76381378 1718.34989655 -3477.09012756 1718.01229309 -3476.39602661 1717.66445923 C-3467.23736792 1713.07844111 -3458.03491211 1708.59684243 -3448.77880859 1704.21044922 C-3440.65551548 1700.34621907 -3432.60435737 1696.342505 -3424.5625 1692.3125 C-3423.88953888 1691.97529938 -3423.21657776 1691.63809875 -3422.52322388 1691.29067993 C-3417.68070864 1688.86332015 -3412.84015064 1686.43207056 -3408 1684 C-3402.48047312 1681.22655764 -3396.96014396 1678.45473116 -3391.4375 1675.6875 C-3390.76381378 1675.34989655 -3390.09012756 1675.01229309 -3389.39602661 1674.66445923 C-3380.23736792 1670.07844111 -3371.03491211 1665.59684243 -3361.77880859 1661.21044922 C-3353.65551548 1657.34621907 -3345.60435737 1653.342505 -3337.5625 1649.3125 C-3336.88953888 1648.97529938 -3336.21657776 1648.63809875 -3335.52322388 1648.29067993 C-3330.68070864 1645.86332015 -3325.84015064 1643.43207056 -3321 1641 C-3315.48047312 1638.22655764 -3309.96014396 1635.45473116 -3304.4375 1632.6875 C-3303.76381378 1632.34989655 -3303.09012756 1632.01229309 -3302.39602661 1631.66445923 C-3293.23736792 1627.07844111 -3284.03491211 1622.59684243 -3274.77880859 1618.21044922 C-3266.65551548 1614.34621907 -3258.60435737 1610.342505 -3250.5625 1606.3125 C-3249.88953888 1605.97529938 -3249.21657776 1605.63809875 -3248.52322388 1605.29067993 C-3243.68070864 1602.86332015 -3238.84015064 1600.43207056 -3234 1598 C-3228.48047312 1595.22655764 -3222.96014396 1592.45473116 -3217.4375 1589.6875 C-3216.76381378 1589.34989655 -3216.09012756 1589.01229309 -3215.39602661 1588.66445923 C-3206.23736792 1584.07844111 -3197.03491211 1579.59684243 -3187.77880859 1575.21044922 C-3179.65551548 1571.34621907 -3171.60435737 1567.342505 -3163.5625 1563.3125 C-3162.88953888 1562.97529938 -3162.21657776 1562.63809875 -3161.52322388 1562.29067993 C-3156.68070864 1559.86332015 -3151.84015064 1557.43207056 -3147 1555 C-3141.48047312 1552.22655764 -3135.96014396 1549.45473116 -3130.4375 1546.6875 C-3129.76381378 1546.34989655 -3129.09012756 1546.01229309 -3128.39602661 1545.66445923 C-3119.23736792 1541.07844111 -3110.03491211 1536.59684243 -3100.77880859 1532.21044922 C-3092.65551548 1528.34621907 -3084.60435737 1524.342505 -3076.5625 1520.3125 C-3075.88953888 1519.97529938 -3075.21657776 1519.63809875 -3074.52322388 1519.29067993 C-3069.68070864 1516.86332015 -3064.84015064 1514.43207056 -3060 1512 C-3054.48047312 1509.22655764 -3048.96014396 1506.45473116 -3043.4375 1503.6875 C-3042.76381378 1503.34989655 -3042.09012756 1503.01229309 -3041.39602661 1502.66445923 C-3032.23736792 1498.07844111 -3023.03491211 1493.59684243 -3013.77880859 1489.21044922 C-3005.65551548 1485.34621907 -2997.60435737 1481.342505 -2989.5625 1477.3125 C-2988.88953888 1476.97529938 -2988.21657776 1476.63809875 -2987.52322388 1476.29067993 C-2982.68070864 1473.86332015 -2977.84015064 1471.43207056 -2973 1469 C-2967.48047312 1466.22655764 -2961.96014396 1463.45473116 -2956.4375 1460.6875 C-2955.76381378 1460.34989655 -2955.09012756 1460.01229309 -2954.39602661 1459.66445923 C-2945.23736792 1455.07844111 -2936.03491211 1450.59684243 -2926.77880859 1446.21044922 C-2918.65551548 1442.34621907 -2910.60435737 1438.342505 -2902.5625 1434.3125 C-2901.88953888 1433.97529938 -2901.21657776 1433.63809875 -2900.52322388 1433.29067993 C-2895.68070864 1430.86332015 -2890.84015064 1428.43207056 -2886 1426 C-2880.48047312 1423.22655764 -2874.96014396 1420.45473116 -2869.4375 1417.6875 C-2868.76381378 1417.34989655 -2868.09012756 1417.01229309 -2867.39602661 1416.66445923 C-2858.23736792 1412.07844111 -2849.03491211 1407.59684243 -2839.77880859 1403.21044922 C-2831.65551548 1399.34621907 -2823.60435737 1395.342505 -2815.5625 1391.3125 C-2814.88953888 1390.97529938 -2814.21657776 1390.63809875 -2813.52322388 1390.29067993 C-2808.68070864 1387.86332015 -2803.84015064 1385.43207056 -2799 1383 C-2793.48047312 1380.22655764 -2787.96014396 1377.45473116 -2782.4375 1374.6875 C-2781.76381378 1374.34989655 -2781.09012756 1374.01229309 -2780.39602661 1373.66445923 C-2771.23736792 1369.07844111 -2762.03491211 1364.59684243 -2752.77880859 1360.21044922 C-2744.65551548 1356.34621907 -2736.60435737 1352.342505 -2728.5625 1348.3125 C-2727.88953888 1347.97529938 -2727.21657776 1347.63809875 -2726.52322388 1347.29067993 C-2721.68070864 1344.86332015 -2716.84015064 1342.43207056 -2712 1340 C-2706.48047312 1337.22655764 -2700.96014396 1334.45473116 -2695.4375 1331.6875 C-2694.76381378 1331.34989655 -2694.09012756 1331.01229309 -2693.39602661 1330.66445923 C-2684.23736792 1326.07844111 -2675.03491211 1321.59684243 -2665.77880859 1317.21044922 C-2657.65551548 1313.34621907 -2649.60435737 1309.342505 -2641.5625 1305.3125 C-2640.88953888 1304.97529938 -2640.21657776 1304.63809875 -2639.52322388 1304.29067993 C-2634.68070864 1301.86332015 -2629.84015064 1299.43207056 -2625 1297 C-2619.48047312 1294.22655764 -2613.96014396 1291.45473116 -2608.4375 1288.6875 C-2607.76381378 1288.34989655 -2607.09012756 1288.01229309 -2606.39602661 1287.66445923 C-2597.23736792 1283.07844111 -2588.03491211 1278.59684243 -2578.77880859 1274.21044922 C-2570.65551548 1270.34621907 -2562.60435737 1266.342505 -2554.5625 1262.3125 C-2553.88953888 1261.97529938 -2553.21657776 1261.63809875 -2552.52322388 1261.29067993 C-2547.68070864 1258.86332015 -2542.84015064 1256.43207056 -2538 1254 C-2532.48047312 1251.22655764 -2526.96014396 1248.45473116 -2521.4375 1245.6875 C-2520.76381378 1245.34989655 -2520.09012756 1245.01229309 -2519.39602661 1244.66445923 C-2510.23736792 1240.07844111 -2501.03491211 1235.59684243 -2491.77880859 1231.21044922 C-2483.65551548 1227.34621907 -2475.60435737 1223.342505 -2467.5625 1219.3125 C-2466.88953888 1218.97529938 -2466.21657776 1218.63809875 -2465.52322388 1218.29067993 C-2460.68070864 1215.86332015 -2455.84015064 1213.43207056 -2451 1211 C-2445.48047312 1208.22655764 -2439.96014396 1205.45473116 -2434.4375 1202.6875 C-2433.76381378 1202.34989655 -2433.09012756 1202.01229309 -2432.39602661 1201.66445923 C-2423.23736792 1197.07844111 -2414.03491211 1192.59684243 -2404.77880859 1188.21044922 C-2396.65551548 1184.34621907 -2388.60435737 1180.342505 -2380.5625 1176.3125 C-2379.88953888 1175.97529938 -2379.21657776 1175.63809875 -2378.52322388 1175.29067993 C-2373.68070864 1172.86332015 -2368.84015064 1170.43207056 -2364 1168 C-2358.48047312 1165.22655764 -2352.96014396 1162.45473116 -2347.4375 1159.6875 C-2346.76381378 1159.34989655 -2346.09012756 1159.01229309 -2345.39602661 1158.66445923 C-2336.23736792 1154.07844111 -2327.03491211 1149.59684243 -2317.77880859 1145.21044922 C-2309.65551548 1141.34621907 -2301.60435737 1137.342505 -2293.5625 1133.3125 C-2292.88953888 1132.97529938 -2292.21657776 1132.63809875 -2291.52322388 1132.29067993 C-2286.68070864 1129.86332015 -2281.84015064 1127.43207056 -2277 1125 C-2271.48047312 1122.22655763 -2265.96013629 1119.45474648 -2260.4375 1116.6875 C-2259.77178986 1116.35388458 -2259.10607971 1116.02026917 -2258.42019653 1115.67654419 C-2247.10845386 1110.01229353 -2235.7255144 1104.50953433 -2224.28955078 1099.10009766 C-2222.02943137 1098.01414137 -2219.79096088 1096.89193345 -2217.5546875 1095.7578125 C-2214 1094 -2214 1094 -2211.125 1093.125 C-2208.36008385 1092.12963019 -2206.45686986 1091.09283351 -2204.00390625 1089.53515625 C-2196.71108841 1085.1076572 -2189.05536113 1081.397235 -2181.41918945 1077.60668945 C-2178.86118436 1076.33667119 -2176.30632404 1075.06051214 -2173.75195312 1073.78320312 C-2164.94106752 1069.38744727 -2156.09407689 1065.0786214 -2147.19921875 1060.85546875 C-2137.93181898 1056.44920662 -2128.7363077 1051.90938856 -2119.5625 1047.3125 C-2118.89055288 1046.97581488 -2118.21860577 1046.63912975 -2117.52629662 1046.29224205 C-2112.68275654 1043.86436281 -2107.84117728 1041.43258643 -2103 1039 C-2097.48047312 1036.22655764 -2091.96014396 1033.45473116 -2086.4375 1030.6875 C-2085.76381378 1030.34989655 -2085.09012756 1030.01229309 -2084.39602661 1029.66445923 C-2075.23736792 1025.07844111 -2066.03491211 1020.59684243 -2056.77880859 1016.21044922 C-2048.65551548 1012.34621907 -2040.60435737 1008.342505 -2032.5625 1004.3125 C-2031.55305832 1003.80669907 -2031.55305832 1003.80669907 -2030.52322388 1003.29067993 C-2025.68070864 1000.86332015 -2020.84015064 998.43207056 -2016 996 C-2010.48047312 993.22655764 -2004.96014396 990.45473116 -1999.4375 987.6875 C-1998.76381378 987.34989655 -1998.09012756 987.01229309 -1997.39602661 986.66445923 C-1988.23736792 982.07844111 -1979.03491211 977.59684243 -1969.77880859 973.21044922 C-1961.65551548 969.34621907 -1953.60435737 965.342505 -1945.5625 961.3125 C-1944.55305832 960.80669907 -1944.55305832 960.80669907 -1943.52322388 960.29067993 C-1938.68070864 957.86332015 -1933.84015064 955.43207056 -1929 953 C-1923.48047312 950.22655764 -1917.96014396 947.45473116 -1912.4375 944.6875 C-1911.76381378 944.34989655 -1911.09012756 944.01229309 -1910.39602661 943.66445923 C-1901.23736792 939.07844111 -1892.03491211 934.59684243 -1882.77880859 930.21044922 C-1874.65551548 926.34621907 -1866.60435737 922.342505 -1858.5625 918.3125 C-1857.55305832 917.80669907 -1857.55305832 917.80669907 -1856.52322388 917.29067993 C-1851.68070864 914.86332015 -1846.84015064 912.43207056 -1842 910 C-1836.48047312 907.22655764 -1830.96014396 904.45473116 -1825.4375 901.6875 C-1824.76381378 901.34989655 -1824.09012756 901.01229309 -1823.39602661 900.66445923 C-1814.23736792 896.07844111 -1805.03491211 891.59684243 -1795.77880859 887.21044922 C-1787.65551548 883.34621907 -1779.60435737 879.342505 -1771.5625 875.3125 C-1770.55305832 874.80669907 -1770.55305832 874.80669907 -1769.52322388 874.29067993 C-1764.68070864 871.86332015 -1759.84015064 869.43207056 -1755 867 C-1749.48047312 864.22655764 -1743.96014396 861.45473116 -1738.4375 858.6875 C-1737.76381378 858.34989655 -1737.09012756 858.01229309 -1736.39602661 857.66445923 C-1727.23736792 853.07844111 -1718.03491211 848.59684243 -1708.77880859 844.21044922 C-1700.65551548 840.34621907 -1692.60435737 836.342505 -1684.5625 832.3125 C-1683.55305832 831.80669907 -1683.55305832 831.80669907 -1682.52322388 831.29067993 C-1677.68070864 828.86332015 -1672.84015064 826.43207056 -1668 824 C-1662.48047312 821.22655764 -1656.96014396 818.45473116 -1651.4375 815.6875 C-1650.76381378 815.34989655 -1650.09012756 815.01229309 -1649.39602661 814.66445923 C-1640.23736792 810.07844111 -1631.03491211 805.59684243 -1621.77880859 801.21044922 C-1613.65551548 797.34621907 -1605.60435737 793.342505 -1597.5625 789.3125 C-1596.55305832 788.80669907 -1596.55305832 788.80669907 -1595.52322388 788.29067993 C-1590.68070864 785.86332015 -1585.84015064 783.43207056 -1581 781 C-1575.48047312 778.22655764 -1569.96014396 775.45473116 -1564.4375 772.6875 C-1563.76381378 772.34989655 -1563.09012756 772.01229309 -1562.39602661 771.66445923 C-1553.23736792 767.07844111 -1544.03491211 762.59684243 -1534.77880859 758.21044922 C-1526.65551548 754.34621907 -1518.60435737 750.342505 -1510.5625 746.3125 C-1509.55305832 745.80669907 -1509.55305832 745.80669907 -1508.52322388 745.29067993 C-1503.68070864 742.86332015 -1498.84015064 740.43207056 -1494 738 C-1488.48047312 735.22655764 -1482.96014396 732.45473116 -1477.4375 729.6875 C-1476.76381378 729.34989655 -1476.09012756 729.01229309 -1475.39602661 728.66445923 C-1466.23736792 724.07844111 -1457.03491211 719.59684243 -1447.77880859 715.21044922 C-1439.65551548 711.34621907 -1431.60435737 707.342505 -1423.5625 703.3125 C-1422.55305832 702.80669907 -1422.55305832 702.80669907 -1421.52322388 702.29067993 C-1416.68070864 699.86332015 -1411.84015064 697.43207056 -1407 695 C-1401.48047312 692.22655764 -1395.96014396 689.45473116 -1390.4375 686.6875 C-1389.76381378 686.34989655 -1389.09012756 686.01229309 -1388.39602661 685.66445923 C-1379.23736792 681.07844111 -1370.03491211 676.59684243 -1360.77880859 672.21044922 C-1352.65551548 668.34621907 -1344.60435737 664.342505 -1336.5625 660.3125 C-1335.55305832 659.80669907 -1335.55305832 659.80669907 -1334.52322388 659.29067993 C-1329.68070864 656.86332015 -1324.84015064 654.43207056 -1320 652 C-1314.48047312 649.22655764 -1308.96014396 646.45473116 -1303.4375 643.6875 C-1302.76381378 643.34989655 -1302.09012756 643.01229309 -1301.39602661 642.66445923 C-1292.23736792 638.07844111 -1283.03491211 633.59684243 -1273.77880859 629.21044922 C-1265.65551548 625.34621907 -1257.60435737 621.342505 -1249.5625 617.3125 C-1248.55305832 616.80669907 -1248.55305832 616.80669907 -1247.52322388 616.29067993 C-1242.68070864 613.86332015 -1237.84015064 611.43207056 -1233 609 C-1227.48047312 606.22655764 -1221.96014396 603.45473116 -1216.4375 600.6875 C-1215.76381378 600.34989655 -1215.09012756 600.01229309 -1214.39602661 599.66445923 C-1205.23736792 595.07844111 -1196.03491211 590.59684243 -1186.77880859 586.21044922 C-1178.65551548 582.34621907 -1170.60435737 578.342505 -1162.5625 574.3125 C-1161.55305832 573.80669907 -1161.55305832 573.80669907 -1160.52322388 573.29067993 C-1155.68070864 570.86332015 -1150.84015064 568.43207056 -1146 566 C-1140.48047312 563.22655764 -1134.96014396 560.45473116 -1129.4375 557.6875 C-1128.76381378 557.34989655 -1128.09012756 557.01229309 -1127.39602661 556.66445923 C-1118.23736792 552.07844111 -1109.03491211 547.59684243 -1099.77880859 543.21044922 C-1091.65551548 539.34621907 -1083.60435737 535.342505 -1075.5625 531.3125 C-1074.55305832 530.80669907 -1074.55305832 530.80669907 -1073.52322388 530.29067993 C-1068.68070864 527.86332015 -1063.84015064 525.43207056 -1059 523 C-1053.48047312 520.22655764 -1047.96014396 517.45473116 -1042.4375 514.6875 C-1041.76381378 514.34989655 -1041.09012756 514.01229309 -1040.39602661 513.66445923 C-1031.23736792 509.07844111 -1022.03491211 504.59684243 -1012.77880859 500.21044922 C-1004.65551548 496.34621907 -996.60435737 492.342505 -988.5625 488.3125 C-987.55305832 487.80669907 -987.55305832 487.80669907 -986.52322388 487.29067993 C-981.68070864 484.86332015 -976.84015064 482.43207056 -972 480 C-966.48047312 477.22655764 -960.96014396 474.45473116 -955.4375 471.6875 C-954.76381378 471.34989655 -954.09012756 471.01229309 -953.39602661 470.66445923 C-944.23736792 466.07844111 -935.03491211 461.59684243 -925.77880859 457.21044922 C-917.65551548 453.34621907 -909.60435737 449.342505 -901.5625 445.3125 C-900.55305832 444.80669907 -900.55305832 444.80669907 -899.52322388 444.29067993 C-894.68070864 441.86332015 -889.84015064 439.43207056 -885 437 C-879.48047312 434.22655764 -873.96014396 431.45473116 -868.4375 428.6875 C-867.76381378 428.34989655 -867.09012756 428.01229309 -866.39602661 427.66445923 C-857.23736792 423.07844111 -848.03491211 418.59684243 -838.77880859 414.21044922 C-830.65551548 410.34621907 -822.60435737 406.342505 -814.5625 402.3125 C-813.55305832 401.80669907 -813.55305832 401.80669907 -812.52322388 401.29067993 C-807.68070864 398.86332015 -802.84015064 396.43207056 -798 394 C-792.48047312 391.22655764 -786.96014396 388.45473116 -781.4375 385.6875 C-780.76381378 385.34989655 -780.09012756 385.01229309 -779.39602661 384.66445923 C-770.23736792 380.07844111 -761.03491211 375.59684243 -751.77880859 371.21044922 C-743.65551548 367.34621907 -735.60435737 363.342505 -727.5625 359.3125 C-726.55305832 358.80669907 -726.55305832 358.80669907 -725.52322388 358.29067993 C-720.68070864 355.86332015 -715.84015064 353.43207056 -711 351 C-705.48047312 348.22655764 -699.96014396 345.45473116 -694.4375 342.6875 C-693.76381378 342.34989655 -693.09012756 342.01229309 -692.39602661 341.66445923 C-683.23736792 337.07844111 -674.03491211 332.59684243 -664.77880859 328.21044922 C-656.65551548 324.34621907 -648.60435737 320.342505 -640.5625 316.3125 C-639.55305832 315.80669907 -639.55305832 315.80669907 -638.52322388 315.29067993 C-633.68070864 312.86332015 -628.84015064 310.43207056 -624 308 C-618.48047312 305.22655764 -612.96014396 302.45473116 -607.4375 299.6875 C-606.76381378 299.34989655 -606.09012756 299.01229309 -605.39602661 298.66445923 C-596.23736792 294.07844111 -587.03491211 289.59684243 -577.77880859 285.21044922 C-569.65551548 281.34621907 -561.60435737 277.342505 -553.5625 273.3125 C-552.55305832 272.80669907 -552.55305832 272.80669907 -551.52322388 272.29067993 C-546.68070864 269.86332015 -541.84015064 267.43207056 -537 265 C-531.48047312 262.22655764 -525.96014396 259.45473116 -520.4375 256.6875 C-519.76381378 256.34989655 -519.09012756 256.01229309 -518.39602661 255.66445923 C-509.23736792 251.07844111 -500.03491211 246.59684243 -490.77880859 242.21044922 C-482.65551548 238.34621907 -474.60435737 234.342505 -466.5625 230.3125 C-465.88953888 229.97529938 -465.21657776 229.63809875 -464.52322388 229.29067993 C-459.68070864 226.86332015 -454.84015064 224.43207056 -450 222 C-444.48047312 219.22655764 -438.96014396 216.45473116 -433.4375 213.6875 C-432.76381378 213.34989655 -432.09012756 213.01229309 -431.39602661 212.66445923 C-422.23736792 208.07844111 -413.03491211 203.59684243 -403.77880859 199.21044922 C-395.65551548 195.34621907 -387.60435737 191.342505 -379.5625 187.3125 C-378.88953888 186.97529938 -378.21657776 186.63809875 -377.52322388 186.29067993 C-372.68070864 183.86332015 -367.84015064 181.43207056 -363 179 C-357.48047312 176.22655764 -351.96014396 173.45473116 -346.4375 170.6875 C-345.76381378 170.34989655 -345.09012756 170.01229309 -344.39602661 169.66445923 C-335.23736792 165.07844111 -326.03491211 160.59684243 -316.77880859 156.21044922 C-308.65551548 152.34621907 -300.60435737 148.342505 -292.5625 144.3125 C-291.88953888 143.97529938 -291.21657776 143.63809875 -290.52322388 143.29067993 C-285.68070864 140.86332015 -280.84015064 138.43207056 -276 136 C-270.48047312 133.22655764 -264.96014396 130.45473116 -259.4375 127.6875 C-258.76381378 127.34989655 -258.09012756 127.01229309 -257.39602661 126.66445923 C-248.23736792 122.07844111 -239.03491211 117.59684243 -229.77880859 113.21044922 C-221.65551548 109.34621907 -213.60435737 105.342505 -205.5625 101.3125 C-204.55305832 100.80669907 -204.55305832 100.80669907 -203.52322388 100.29067993 C-198.68070864 97.86332015 -193.84015064 95.43207056 -189 93 C-183.48047312 90.22655764 -177.96014396 87.45473116 -172.4375 84.6875 C-171.76381378 84.34989655 -171.09012756 84.01229309 -170.39602661 83.66445923 C-161.23736792 79.07844111 -152.03491211 74.59684243 -142.77880859 70.21044922 C-134.65551548 66.34621907 -126.60435737 62.342505 -118.5625 58.3125 C-117.88953888 57.97529938 -117.21657776 57.63809875 -116.52322388 57.29067993 C-111.68070864 54.86332015 -106.84015064 52.43207056 -102 50 C-84.58128523 41.24747419 -67.15008266 32.55099426 -49.5324707 24.20318604 C-43.31098335 21.24733478 -37.11338644 18.24157362 -30.91552734 15.23657227 C-29.45092892 14.52705936 -27.98574266 13.8187588 -26.52001953 13.11157227 C-18.54364346 9.2628009 -10.63694017 5.37058358 -2.91503906 1.0246582 C-1 0 -1 0 0 0 Z " fill="#181814" transform="translate(4488,2381)"/>
<path d="M0 0 C0 21.78 0 43.56 0 66 C-25.14856856 79.71740104 -25.14856856 79.71740104 -34.33203125 83.99609375 C-36.44780608 84.99773774 -38.56319254 86.00020244 -40.67822266 87.00341797 C-41.72689514 87.49912292 -42.77556763 87.99482788 -43.85601807 88.5055542 C-48.96825538 90.93558139 -54.05317525 93.42078453 -59.13671875 95.91015625 C-60.65265625 96.65221062 -60.65265625 96.65221062 -62.19921875 97.40925598 C-65.36262527 98.9590234 -68.52515399 100.51056985 -71.6875 102.0625 C-72.80054504 102.60826691 -73.91359009 103.15403381 -75.06036377 103.71633911 C-88.27617959 110.19873981 -101.47261821 116.71795801 -114.63671875 123.3046875 C-115.23697309 123.60501074 -115.83722744 123.90533398 -116.45567131 124.21475792 C-122.79605134 127.38775377 -129.13337326 130.56679321 -135.4675293 133.75219727 C-145.29336011 138.6880091 -155.13523365 143.5726124 -165.0703125 148.28515625 C-174.24939725 152.64187872 -183.35419156 157.13555916 -192.4375 161.6875 C-193.10983799 162.02438906 -193.78217598 162.36127811 -194.47488785 162.70837593 C-199.31803245 165.13605056 -204.15922056 167.56761348 -209 170 C-214.51952688 172.77344236 -220.03985604 175.54526884 -225.5625 178.3125 C-226.23618622 178.65010345 -226.90987244 178.98770691 -227.60397339 179.33554077 C-236.76263208 183.92155889 -245.96508789 188.40315757 -255.22119141 192.78955078 C-263.34448452 196.65378093 -271.39564263 200.657495 -279.4375 204.6875 C-280.11046112 205.02470062 -280.78342224 205.36190125 -281.47677612 205.70932007 C-286.31929136 208.13667985 -291.15984936 210.56792944 -296 213 C-301.51952688 215.77344236 -307.03985604 218.54526884 -312.5625 221.3125 C-313.23618622 221.65010345 -313.90987244 221.98770691 -314.60397339 222.33554077 C-323.76263208 226.92155889 -332.96508789 231.40315757 -342.22119141 235.78955078 C-350.34448452 239.65378093 -358.39564263 243.657495 -366.4375 247.6875 C-367.11046112 248.02470062 -367.78342224 248.36190125 -368.47677612 248.70932007 C-373.31929136 251.13667985 -378.15984936 253.56792944 -383 256 C-388.51952688 258.77344236 -394.03985604 261.54526884 -399.5625 264.3125 C-400.23618622 264.65010345 -400.90987244 264.98770691 -401.60397339 265.33554077 C-410.76263208 269.92155889 -419.96508789 274.40315757 -429.22119141 278.78955078 C-437.34448452 282.65378093 -445.39564263 286.657495 -453.4375 290.6875 C-454.44694168 291.19330093 -454.44694168 291.19330093 -455.47677612 291.70932007 C-460.31929136 294.13667985 -465.15984936 296.56792944 -470 299 C-475.51952688 301.77344236 -481.03985604 304.54526884 -486.5625 307.3125 C-487.23618622 307.65010345 -487.90987244 307.98770691 -488.60397339 308.33554077 C-497.76263208 312.92155889 -506.96508789 317.40315757 -516.22119141 321.78955078 C-524.34448452 325.65378093 -532.39564263 329.657495 -540.4375 333.6875 C-541.44694168 334.19330093 -541.44694168 334.19330093 -542.47677612 334.70932007 C-547.31929136 337.13667985 -552.15984936 339.56792944 -557 342 C-562.51952688 344.77344236 -568.03985604 347.54526884 -573.5625 350.3125 C-574.23618622 350.65010345 -574.90987244 350.98770691 -575.60397339 351.33554077 C-584.76263208 355.92155889 -593.96508789 360.40315757 -603.22119141 364.78955078 C-611.34448452 368.65378093 -619.39564263 372.657495 -627.4375 376.6875 C-628.44694168 377.19330093 -628.44694168 377.19330093 -629.47677612 377.70932007 C-634.31929136 380.13667985 -639.15984936 382.56792944 -644 385 C-649.51952688 387.77344236 -655.03985604 390.54526884 -660.5625 393.3125 C-661.23618622 393.65010345 -661.90987244 393.98770691 -662.60397339 394.33554077 C-671.76263208 398.92155889 -680.96508789 403.40315757 -690.22119141 407.78955078 C-698.34448452 411.65378093 -706.39564263 415.657495 -714.4375 419.6875 C-715.44694168 420.19330093 -715.44694168 420.19330093 -716.47677612 420.70932007 C-721.31929136 423.13667985 -726.15984936 425.56792944 -731 428 C-736.51952688 430.77344236 -742.03985604 433.54526884 -747.5625 436.3125 C-748.23618622 436.65010345 -748.90987244 436.98770691 -749.60397339 437.33554077 C-758.76263208 441.92155889 -767.96508789 446.40315757 -777.22119141 450.78955078 C-785.34448452 454.65378093 -793.39564263 458.657495 -801.4375 462.6875 C-802.44694168 463.19330093 -802.44694168 463.19330093 -803.47677612 463.70932007 C-808.31929136 466.13667985 -813.15984936 468.56792944 -818 471 C-823.51952688 473.77344236 -829.03985604 476.54526884 -834.5625 479.3125 C-835.23618622 479.65010345 -835.90987244 479.98770691 -836.60397339 480.33554077 C-845.76263208 484.92155889 -854.96508789 489.40315757 -864.22119141 493.78955078 C-872.34448452 497.65378093 -880.39564263 501.657495 -888.4375 505.6875 C-889.44694168 506.19330093 -889.44694168 506.19330093 -890.47677612 506.70932007 C-895.31929136 509.13667985 -900.15984936 511.56792944 -905 514 C-910.51952688 516.77344236 -916.03985604 519.54526884 -921.5625 522.3125 C-922.23618622 522.65010345 -922.90987244 522.98770691 -923.60397339 523.33554077 C-932.76263208 527.92155889 -941.96508789 532.40315757 -951.22119141 536.78955078 C-959.34448452 540.65378093 -967.39564263 544.657495 -975.4375 548.6875 C-976.44694168 549.19330093 -976.44694168 549.19330093 -977.47677612 549.70932007 C-982.31929136 552.13667985 -987.15984936 554.56792944 -992 557 C-997.51952688 559.77344236 -1003.03985604 562.54526884 -1008.5625 565.3125 C-1009.23618622 565.65010345 -1009.90987244 565.98770691 -1010.60397339 566.33554077 C-1019.76263208 570.92155889 -1028.96508789 575.40315757 -1038.22119141 579.78955078 C-1046.34448452 583.65378093 -1054.39564263 587.657495 -1062.4375 591.6875 C-1063.44694168 592.19330093 -1063.44694168 592.19330093 -1064.47677612 592.70932007 C-1069.31929136 595.13667985 -1074.15984936 597.56792944 -1079 600 C-1084.51952688 602.77344236 -1090.03985604 605.54526884 -1095.5625 608.3125 C-1096.23618622 608.65010345 -1096.90987244 608.98770691 -1097.60397339 609.33554077 C-1106.76263208 613.92155889 -1115.96508789 618.40315757 -1125.22119141 622.78955078 C-1133.34448452 626.65378093 -1141.39564263 630.657495 -1149.4375 634.6875 C-1150.44694168 635.19330093 -1150.44694168 635.19330093 -1151.47677612 635.70932007 C-1156.31929136 638.13667985 -1161.15984936 640.56792944 -1166 643 C-1171.51952688 645.77344236 -1177.03985604 648.54526884 -1182.5625 651.3125 C-1183.23618622 651.65010345 -1183.90987244 651.98770691 -1184.60397339 652.33554077 C-1193.76263208 656.92155889 -1202.96508789 661.40315757 -1212.22119141 665.78955078 C-1220.34448452 669.65378093 -1228.39564263 673.657495 -1236.4375 677.6875 C-1237.44694168 678.19330093 -1237.44694168 678.19330093 -1238.47677612 678.70932007 C-1243.31929136 681.13667985 -1248.15984936 683.56792944 -1253 686 C-1258.51952688 688.77344236 -1264.03985604 691.54526884 -1269.5625 694.3125 C-1270.23618622 694.65010345 -1270.90987244 694.98770691 -1271.60397339 695.33554077 C-1280.76263208 699.92155889 -1289.96508789 704.40315757 -1299.22119141 708.78955078 C-1307.34448452 712.65378093 -1315.39564263 716.657495 -1323.4375 720.6875 C-1324.44694168 721.19330093 -1324.44694168 721.19330093 -1325.47677612 721.70932007 C-1330.31929136 724.13667985 -1335.15984936 726.56792944 -1340 729 C-1345.51952688 731.77344236 -1351.03985604 734.54526884 -1356.5625 737.3125 C-1357.23618622 737.65010345 -1357.90987244 737.98770691 -1358.60397339 738.33554077 C-1367.76263208 742.92155889 -1376.96508789 747.40315757 -1386.22119141 751.78955078 C-1394.34448452 755.65378093 -1402.39564263 759.657495 -1410.4375 763.6875 C-1411.44694168 764.19330093 -1411.44694168 764.19330093 -1412.47677612 764.70932007 C-1417.31929136 767.13667985 -1422.15984936 769.56792944 -1427 772 C-1432.51952688 774.77344236 -1438.03985604 777.54526884 -1443.5625 780.3125 C-1444.23618622 780.65010345 -1444.90987244 780.98770691 -1445.60397339 781.33554077 C-1454.76263208 785.92155889 -1463.96508789 790.40315757 -1473.22119141 794.78955078 C-1481.34448452 798.65378093 -1489.39564263 802.657495 -1497.4375 806.6875 C-1498.44694168 807.19330093 -1498.44694168 807.19330093 -1499.47677612 807.70932007 C-1504.31929136 810.13667985 -1509.15984936 812.56792944 -1514 815 C-1519.51952688 817.77344236 -1525.03985604 820.54526884 -1530.5625 823.3125 C-1531.23618622 823.65010345 -1531.90987244 823.98770691 -1532.60397339 824.33554077 C-1541.76263208 828.92155889 -1550.96508789 833.40315757 -1560.22119141 837.78955078 C-1568.34448452 841.65378093 -1576.39564263 845.657495 -1584.4375 849.6875 C-1585.44694168 850.19330093 -1585.44694168 850.19330093 -1586.47677612 850.70932007 C-1591.31929136 853.13667985 -1596.15984936 855.56792944 -1601 858 C-1606.51952688 860.77344236 -1612.03985604 863.54526884 -1617.5625 866.3125 C-1618.23618622 866.65010345 -1618.90987244 866.98770691 -1619.60397339 867.33554077 C-1628.76263208 871.92155889 -1637.96508789 876.40315757 -1647.22119141 880.78955078 C-1655.34448452 884.65378093 -1663.39564263 888.657495 -1671.4375 892.6875 C-1672.44694168 893.19330093 -1672.44694168 893.19330093 -1673.47677612 893.70932007 C-1678.31929136 896.13667985 -1683.15984936 898.56792944 -1688 901 C-1693.51952688 903.77344236 -1699.03985604 906.54526884 -1704.5625 909.3125 C-1705.23618622 909.65010345 -1705.90987244 909.98770691 -1706.60397339 910.33554077 C-1715.76263208 914.92155889 -1724.96508789 919.40315757 -1734.22119141 923.78955078 C-1742.34448452 927.65378093 -1750.39564263 931.657495 -1758.4375 935.6875 C-1759.44694168 936.19330093 -1759.44694168 936.19330093 -1760.47677612 936.70932007 C-1765.31929136 939.13667985 -1770.15984936 941.56792944 -1775 944 C-1780.51952688 946.77344236 -1786.03985604 949.54526884 -1791.5625 952.3125 C-1792.23618622 952.65010345 -1792.90987244 952.98770691 -1793.60397339 953.33554077 C-1802.76263208 957.92155889 -1811.96508789 962.40315757 -1821.22119141 966.78955078 C-1829.34448452 970.65378093 -1837.39564263 974.657495 -1845.4375 978.6875 C-1846.44694168 979.19330093 -1846.44694168 979.19330093 -1847.47677612 979.70932007 C-1852.31929136 982.13667985 -1857.15984936 984.56792944 -1862 987 C-1867.51952688 989.77344236 -1873.03985604 992.54526884 -1878.5625 995.3125 C-1879.23618622 995.65010345 -1879.90987244 995.98770691 -1880.60397339 996.33554077 C-1889.76263208 1000.92155889 -1898.96508789 1005.40315757 -1908.22119141 1009.78955078 C-1916.34448452 1013.65378093 -1924.39564263 1017.657495 -1932.4375 1021.6875 C-1933.44694168 1022.19330093 -1933.44694168 1022.19330093 -1934.47677612 1022.70932007 C-1939.31929136 1025.13667985 -1944.15984936 1027.56792944 -1949 1030 C-1954.51952688 1032.77344236 -1960.03985604 1035.54526884 -1965.5625 1038.3125 C-1966.23618622 1038.65010345 -1966.90987244 1038.98770691 -1967.60397339 1039.33554077 C-1976.76263208 1043.92155889 -1985.96508789 1048.40315757 -1995.22119141 1052.78955078 C-2003.34448452 1056.65378093 -2011.39564263 1060.657495 -2019.4375 1064.6875 C-2020.44694168 1065.19330093 -2020.44694168 1065.19330093 -2021.47677612 1065.70932007 C-2026.31929136 1068.13667985 -2031.15984936 1070.56792944 -2036 1073 C-2041.51952688 1075.77344236 -2047.03985604 1078.54526884 -2052.5625 1081.3125 C-2053.23618622 1081.65010345 -2053.90987244 1081.98770691 -2054.60397339 1082.33554077 C-2063.76263208 1086.92155889 -2072.96508789 1091.40315757 -2082.22119141 1095.78955078 C-2090.34448452 1099.65378093 -2098.39564263 1103.657495 -2106.4375 1107.6875 C-2107.44694168 1108.19330093 -2107.44694168 1108.19330093 -2108.47677612 1108.70932007 C-2113.31929136 1111.13667985 -2118.15984936 1113.56792944 -2123 1116 C-2128.51952681 1118.77344233 -2134.03982446 1121.54533196 -2139.5625 1124.3125 C-2140.2302457 1124.64709166 -2140.89799141 1124.98168331 -2141.58597183 1125.32641411 C-2152.87445686 1130.97815086 -2164.23583674 1136.4646706 -2175.64147949 1141.87628174 C-2181.16377612 1144.5073827 -2186.64829186 1147.21292381 -2192.125 1149.9375 C-2193.21941406 1150.47439453 -2194.31382812 1151.01128906 -2195.44140625 1151.56445312 C-2196.49457031 1152.08845703 -2197.54773437 1152.61246094 -2198.6328125 1153.15234375 C-2199.54949707 1153.60601318 -2200.46618164 1154.05968262 -2201.41064453 1154.52709961 C-2204.09513365 1155.96083094 -2204.09513365 1155.96083094 -2206.578125 1158.09008789 C-2208.87932474 1159.90483442 -2210.33880453 1160.65758789 -2213.1171875 1161.40625 C-2218.78063641 1163.14525371 -2223.87054215 1165.79209515 -2229.125 1168.5 C-2236.79637468 1172.42791745 -2244.51915381 1176.21102128 -2252.3046875 1179.90625 C-2261.73740537 1184.39228594 -2271.09991416 1189.00777735 -2280.4375 1193.6875 C-2281.10872768 1194.02383957 -2281.77995537 1194.36017914 -2282.47152328 1194.70671082 C-2287.31578883 1197.1349417 -2292.15810241 1199.56705164 -2297 1202 C-2302.51952688 1204.77344236 -2308.03985604 1207.54526884 -2313.5625 1210.3125 C-2314.23618622 1210.65010345 -2314.90987244 1210.98770691 -2315.60397339 1211.33554077 C-2324.76263208 1215.92155889 -2333.96508789 1220.40315757 -2343.22119141 1224.78955078 C-2351.34448452 1228.65378093 -2359.39564263 1232.657495 -2367.4375 1236.6875 C-2368.44694168 1237.19330093 -2368.44694168 1237.19330093 -2369.47677612 1237.70932007 C-2374.31929136 1240.13667985 -2379.15984936 1242.56792944 -2384 1245 C-2389.51952688 1247.77344236 -2395.03985604 1250.54526884 -2400.5625 1253.3125 C-2401.23618622 1253.65010345 -2401.90987244 1253.98770691 -2402.60397339 1254.33554077 C-2411.76263208 1258.92155889 -2420.96508789 1263.40315757 -2430.22119141 1267.78955078 C-2438.34448452 1271.65378093 -2446.39564263 1275.657495 -2454.4375 1279.6875 C-2455.11046112 1280.02470062 -2455.78342224 1280.36190125 -2456.47677612 1280.70932007 C-2461.31929136 1283.13667985 -2466.15984936 1285.56792944 -2471 1288 C-2476.51952688 1290.77344236 -2482.03985604 1293.54526884 -2487.5625 1296.3125 C-2488.23618622 1296.65010345 -2488.90987244 1296.98770691 -2489.60397339 1297.33554077 C-2498.76263208 1301.92155889 -2507.96508789 1306.40315757 -2517.22119141 1310.78955078 C-2525.34448452 1314.65378093 -2533.39564263 1318.657495 -2541.4375 1322.6875 C-2542.11046112 1323.02470062 -2542.78342224 1323.36190125 -2543.47677612 1323.70932007 C-2548.31929136 1326.13667985 -2553.15984936 1328.56792944 -2558 1331 C-2563.51952688 1333.77344236 -2569.03985604 1336.54526884 -2574.5625 1339.3125 C-2575.23618622 1339.65010345 -2575.90987244 1339.98770691 -2576.60397339 1340.33554077 C-2585.76263208 1344.92155889 -2594.96508789 1349.40315757 -2604.22119141 1353.78955078 C-2612.34448452 1357.65378093 -2620.39564263 1361.657495 -2628.4375 1365.6875 C-2629.11046112 1366.02470062 -2629.78342224 1366.36190125 -2630.47677612 1366.70932007 C-2635.31929136 1369.13667985 -2640.15984936 1371.56792944 -2645 1374 C-2650.51952688 1376.77344236 -2656.03985604 1379.54526884 -2661.5625 1382.3125 C-2662.23618622 1382.65010345 -2662.90987244 1382.98770691 -2663.60397339 1383.33554077 C-2672.76263208 1387.92155889 -2681.96508789 1392.40315757 -2691.22119141 1396.78955078 C-2699.34448452 1400.65378093 -2707.39564263 1404.657495 -2715.4375 1408.6875 C-2716.11046112 1409.02470062 -2716.78342224 1409.36190125 -2717.47677612 1409.70932007 C-2722.31929136 1412.13667985 -2727.15984936 1414.56792944 -2732 1417 C-2737.51952688 1419.77344236 -2743.03985604 1422.54526884 -2748.5625 1425.3125 C-2749.23618622 1425.65010345 -2749.90987244 1425.98770691 -2750.60397339 1426.33554077 C-2759.76263208 1430.92155889 -2768.96508789 1435.40315757 -2778.22119141 1439.78955078 C-2786.34448452 1443.65378093 -2794.39564263 1447.657495 -2802.4375 1451.6875 C-2803.11046112 1452.02470062 -2803.78342224 1452.36190125 -2804.47677612 1452.70932007 C-2809.31929136 1455.13667985 -2814.15984936 1457.56792944 -2819 1460 C-2824.51952688 1462.77344236 -2830.03985604 1465.54526884 -2835.5625 1468.3125 C-2836.23618622 1468.65010345 -2836.90987244 1468.98770691 -2837.60397339 1469.33554077 C-2846.76263208 1473.92155889 -2855.96508789 1478.40315757 -2865.22119141 1482.78955078 C-2873.34448452 1486.65378093 -2881.39564263 1490.657495 -2889.4375 1494.6875 C-2890.11046112 1495.02470062 -2890.78342224 1495.36190125 -2891.47677612 1495.70932007 C-2896.31929136 1498.13667985 -2901.15984936 1500.56792944 -2906 1503 C-2911.51952688 1505.77344236 -2917.03985604 1508.54526884 -2922.5625 1511.3125 C-2923.23618622 1511.65010345 -2923.90987244 1511.98770691 -2924.60397339 1512.33554077 C-2933.76263208 1516.92155889 -2942.96508789 1521.40315757 -2952.22119141 1525.78955078 C-2960.34448452 1529.65378093 -2968.39564263 1533.657495 -2976.4375 1537.6875 C-2977.11046112 1538.02470062 -2977.78342224 1538.36190125 -2978.47677612 1538.70932007 C-2983.31929136 1541.13667985 -2988.15984936 1543.56792944 -2993 1546 C-2998.51952688 1548.77344236 -3004.03985604 1551.54526884 -3009.5625 1554.3125 C-3010.23618622 1554.65010345 -3010.90987244 1554.98770691 -3011.60397339 1555.33554077 C-3020.76263208 1559.92155889 -3029.96508789 1564.40315757 -3039.22119141 1568.78955078 C-3047.34448452 1572.65378093 -3055.39564263 1576.657495 -3063.4375 1580.6875 C-3064.11046112 1581.02470062 -3064.78342224 1581.36190125 -3065.47677612 1581.70932007 C-3070.31929136 1584.13667985 -3075.15984936 1586.56792944 -3080 1589 C-3085.51952688 1591.77344236 -3091.03985604 1594.54526884 -3096.5625 1597.3125 C-3097.23618622 1597.65010345 -3097.90987244 1597.98770691 -3098.60397339 1598.33554077 C-3107.76263208 1602.92155889 -3116.96508789 1607.40315757 -3126.22119141 1611.78955078 C-3134.34448452 1615.65378093 -3142.39564263 1619.657495 -3150.4375 1623.6875 C-3151.11046112 1624.02470062 -3151.78342224 1624.36190125 -3152.47677612 1624.70932007 C-3157.31929136 1627.13667985 -3162.15984936 1629.56792944 -3167 1632 C-3172.51952688 1634.77344236 -3178.03985604 1637.54526884 -3183.5625 1640.3125 C-3184.23618622 1640.65010345 -3184.90987244 1640.98770691 -3185.60397339 1641.33554077 C-3194.76263208 1645.92155889 -3203.96508789 1650.40315757 -3213.22119141 1654.78955078 C-3221.34448452 1658.65378093 -3229.39564263 1662.657495 -3237.4375 1666.6875 C-3238.11046112 1667.02470062 -3238.78342224 1667.36190125 -3239.47677612 1667.70932007 C-3244.31929136 1670.13667985 -3249.15984936 1672.56792944 -3254 1675 C-3259.51952688 1677.77344236 -3265.03985604 1680.54526884 -3270.5625 1683.3125 C-3271.23618622 1683.65010345 -3271.90987244 1683.98770691 -3272.60397339 1684.33554077 C-3281.76263208 1688.92155889 -3290.96508789 1693.40315757 -3300.22119141 1697.78955078 C-3308.34448452 1701.65378093 -3316.39564263 1705.657495 -3324.4375 1709.6875 C-3325.11046112 1710.02470062 -3325.78342224 1710.36190125 -3326.47677612 1710.70932007 C-3331.31929136 1713.13667985 -3336.15984936 1715.56792944 -3341 1718 C-3346.51952688 1720.77344236 -3352.03985604 1723.54526884 -3357.5625 1726.3125 C-3358.23618622 1726.65010345 -3358.90987244 1726.98770691 -3359.60397339 1727.33554077 C-3368.76263208 1731.92155889 -3377.96508789 1736.40315757 -3387.22119141 1740.78955078 C-3395.34448452 1744.65378093 -3403.39564263 1748.657495 -3411.4375 1752.6875 C-3412.11046112 1753.02470062 -3412.78342224 1753.36190125 -3413.47677612 1753.70932007 C-3418.31929136 1756.13667985 -3423.15984936 1758.56792944 -3428 1761 C-3433.51952688 1763.77344236 -3439.03985604 1766.54526884 -3444.5625 1769.3125 C-3445.23618622 1769.65010345 -3445.90987244 1769.98770691 -3446.60397339 1770.33554077 C-3455.76263208 1774.92155889 -3464.96508789 1779.40315757 -3474.22119141 1783.78955078 C-3482.34448452 1787.65378093 -3490.39564263 1791.657495 -3498.4375 1795.6875 C-3499.11046112 1796.02470062 -3499.78342224 1796.36190125 -3500.47677612 1796.70932007 C-3505.31929136 1799.13667985 -3510.15984936 1801.56792944 -3515 1804 C-3520.51952688 1806.77344236 -3526.03985604 1809.54526884 -3531.5625 1812.3125 C-3532.23618622 1812.65010345 -3532.90987244 1812.98770691 -3533.60397339 1813.33554077 C-3542.76263208 1817.92155889 -3551.96508789 1822.40315757 -3561.22119141 1826.78955078 C-3569.34448452 1830.65378093 -3577.39564263 1834.657495 -3585.4375 1838.6875 C-3586.11046112 1839.02470062 -3586.78342224 1839.36190125 -3587.47677612 1839.70932007 C-3592.31929136 1842.13667985 -3597.15984936 1844.56792944 -3602 1847 C-3607.51952688 1849.77344236 -3613.03985604 1852.54526884 -3618.5625 1855.3125 C-3619.23618622 1855.65010345 -3619.90987244 1855.98770691 -3620.60397339 1856.33554077 C-3629.76263208 1860.92155889 -3638.96508789 1865.40315757 -3648.22119141 1869.78955078 C-3656.34448452 1873.65378093 -3664.39564263 1877.657495 -3672.4375 1881.6875 C-3673.11046112 1882.02470062 -3673.78342224 1882.36190125 -3674.47677612 1882.70932007 C-3679.31929136 1885.13667985 -3684.15984936 1887.56792944 -3689 1890 C-3694.51952688 1892.77344236 -3700.03985604 1895.54526884 -3705.5625 1898.3125 C-3706.23618622 1898.65010345 -3706.90987244 1898.98770691 -3707.60397339 1899.33554077 C-3716.76263208 1903.92155889 -3725.96508789 1908.40315757 -3735.22119141 1912.78955078 C-3743.34448452 1916.65378093 -3751.39564263 1920.657495 -3759.4375 1924.6875 C-3760.11046112 1925.02470062 -3760.78342224 1925.36190125 -3761.47677612 1925.70932007 C-3766.31929136 1928.13667985 -3771.15984936 1930.56792944 -3776 1933 C-3781.51952688 1935.77344236 -3787.03985604 1938.54526884 -3792.5625 1941.3125 C-3793.23618622 1941.65010345 -3793.90987244 1941.98770691 -3794.60397339 1942.33554077 C-3803.76263208 1946.92155889 -3812.96508789 1951.40315757 -3822.22119141 1955.78955078 C-3830.34448452 1959.65378093 -3838.39564263 1963.657495 -3846.4375 1967.6875 C-3847.11046112 1968.02470062 -3847.78342224 1968.36190125 -3848.47677612 1968.70932007 C-3853.31929136 1971.13667985 -3858.15984936 1973.56792944 -3863 1976 C-3868.51952688 1978.77344236 -3874.03985604 1981.54526884 -3879.5625 1984.3125 C-3880.23618622 1984.65010345 -3880.90987244 1984.98770691 -3881.60397339 1985.33554077 C-3890.76263208 1989.92155889 -3899.96508789 1994.40315757 -3909.22119141 1998.78955078 C-3917.34448452 2002.65378093 -3925.39564263 2006.657495 -3933.4375 2010.6875 C-3934.11046112 2011.02470062 -3934.78342224 2011.36190125 -3935.47677612 2011.70932007 C-3940.31929136 2014.13667985 -3945.15984936 2016.56792944 -3950 2019 C-3955.51952688 2021.77344236 -3961.03985604 2024.54526884 -3966.5625 2027.3125 C-3967.23618622 2027.65010345 -3967.90987244 2027.98770691 -3968.60397339 2028.33554077 C-3977.76263208 2032.92155889 -3986.96508789 2037.40315757 -3996.22119141 2041.78955078 C-4004.34448452 2045.65378093 -4012.39564263 2049.657495 -4020.4375 2053.6875 C-4021.11046112 2054.02470062 -4021.78342224 2054.36190125 -4022.47677612 2054.70932007 C-4027.31929136 2057.13667985 -4032.15984936 2059.56792944 -4037 2062 C-4042.51952688 2064.77344236 -4048.03985604 2067.54526884 -4053.5625 2070.3125 C-4054.23618622 2070.65010345 -4054.90987244 2070.98770691 -4055.60397339 2071.33554077 C-4064.76263208 2075.92155889 -4073.96508789 2080.40315757 -4083.22119141 2084.78955078 C-4091.34448452 2088.65378093 -4099.39564263 2092.657495 -4107.4375 2096.6875 C-4108.11046112 2097.02470062 -4108.78342224 2097.36190125 -4109.47677612 2097.70932007 C-4114.31929136 2100.13667985 -4119.15984936 2102.56792944 -4124 2105 C-4141.50697924 2113.79687679 -4159.02413939 2122.54379367 -4176.73504639 2130.92572021 C-4179.75855803 2132.35978819 -4182.77238686 2133.81303317 -4185.78515625 2135.26953125 C-4186.68556641 2135.70330078 -4187.58597656 2136.13707031 -4188.51367188 2136.58398438 C-4190.24905968 2137.420428 -4191.98339571 2138.25905649 -4193.71679688 2139.09960938 C-4195.47542257 2139.94512702 -4197.24226046 2140.77382887 -4199.01782036 2141.58318138 C-4201.98820236 2142.94587737 -4201.98820236 2142.94587737 -4204.67469978 2144.54299355 C-4216.6851007 2150.82660151 -4229.31459754 2149.7985949 -4242.55810547 2149.68115234 C-4245.23997619 2149.67945783 -4247.92174844 2149.68015046 -4250.60360718 2149.68380737 C-4256.35374723 2149.68693689 -4262.10347535 2149.66828766 -4267.85351181 2149.63438034 C-4276.16678305 2149.58539011 -4284.47985732 2149.56996855 -4292.79325725 2149.56245239 C-4306.28464737 2149.5493561 -4319.77581847 2149.50952344 -4333.26708984 2149.45263672 C-4346.36408399 2149.39747029 -4359.46101842 2149.35504509 -4372.55810547 2149.32958984 C-4373.36689014 2149.3280135 -4374.17567481 2149.32643716 -4375.0089681 2149.32481305 C-4379.06684623 2149.31698221 -4383.12472477 2149.30940011 -4387.1826036 2149.30194163 C-4420.78859656 2149.23985185 -4454.39418173 2149.1293016 -4488 2149 C-4488 2122.27 -4488 2095.54 -4488 2068 C-4463.77227738 2056.76638467 -4439.53848226 2045.54651452 -4415.2877655 2034.36265564 C-4409.53928906 2031.71118371 -4403.79275631 2029.05552777 -4398.046875 2026.3984375 C-4394.73972272 2024.86948995 -4391.43242698 2023.34085322 -4388.125 2021.8125 C-4387.31310211 2021.43732239 -4386.50120422 2021.06214478 -4385.66470337 2020.67559814 C-4373.80696945 2015.19820154 -4361.92451268 2009.77775668 -4350.0256958 2004.39028931 C-4339.30776285 1999.53473943 -4328.64400595 1994.57135845 -4317.99926758 1989.55764771 C-4308.05536824 1984.87608731 -4298.07575174 1980.28122642 -4288.0625 1975.75 C-4275.63685867 1970.12605463 -4263.24640168 1964.42978429 -4250.875 1958.6875 C-4249.58467361 1958.08867508 -4249.58467361 1958.08867508 -4248.26828003 1957.47775269 C-4244.77900426 1955.85835925 -4241.28978345 1954.23884754 -4237.80067444 1952.61909485 C-4228.58041548 1948.33947656 -4219.35410998 1944.07299353 -4210.125 1939.8125 C-4209.31760376 1939.43973938 -4208.51020752 1939.06697876 -4207.67834473 1938.68292236 C-4195.62738843 1933.12064097 -4183.56008903 1927.5948815 -4171.48461914 1922.08605957 C-4158.63778547 1916.22367812 -4145.82223627 1910.29507572 -4133.01330566 1904.35040283 C-4120.81185001 1898.68794814 -4108.60054967 1893.04774743 -4096.375 1887.4375 C-4083.78524875 1881.6596794 -4071.20148642 1875.86914257 -4058.625 1870.0625 C-4057.41484222 1869.50382736 -4057.41484222 1869.50382736 -4056.18023682 1868.93386841 C-4047.97800559 1865.14720749 -4039.77649465 1861.35898996 -4031.57574463 1857.56912231 C-4027.4673802 1855.67061141 -4023.35876629 1853.77264102 -4019.25 1851.875 C-4018.03304443 1851.31292847 -4018.03304443 1851.31292847 -4016.79150391 1850.73950195 C-4004.703346 1845.15766684 -3992.59887527 1839.61246361 -3980.48516846 1834.08633423 C-3967.63815485 1828.22385472 -3954.82242166 1822.29516176 -3942.01330566 1816.35040283 C-3929.81185001 1810.68794814 -3917.60054967 1805.04774743 -3905.375 1799.4375 C-3892.78524853 1793.6596793 -3880.20152766 1787.86905353 -3867.625 1782.0625 C-3866.81889282 1781.69038391 -3866.01278564 1781.31826782 -3865.18225098 1780.93487549 C-3856.96190625 1777.14015932 -3848.74238435 1773.34367087 -3840.52455139 1769.54351807 C-3836.39168321 1767.63249556 -3832.25843606 1765.72229387 -3828.125 1763.8125 C-3827.31346466 1763.43750366 -3826.50192932 1763.06250732 -3825.665802 1762.67614746 C-3813.80770468 1757.19856047 -3801.92488598 1751.7779257 -3790.0256958 1746.39028931 C-3779.30776285 1741.53473943 -3768.64400595 1736.57135845 -3757.99926758 1731.55764771 C-3748.05536824 1726.87608731 -3738.07575174 1722.28122642 -3728.0625 1717.75 C-3715.63685867 1712.12605463 -3703.24640168 1706.42978429 -3690.875 1700.6875 C-3690.01478241 1700.28828339 -3689.15456482 1699.88906677 -3688.26828003 1699.47775269 C-3684.77900426 1697.85835925 -3681.28978345 1696.23884754 -3677.80067444 1694.61909485 C-3668.58041548 1690.33947656 -3659.35410998 1686.07299353 -3650.125 1681.8125 C-3649.31760376 1681.43973938 -3648.51020752 1681.06697876 -3647.67834473 1680.68292236 C-3635.62738843 1675.12064097 -3623.56008903 1669.5948815 -3611.48461914 1664.08605957 C-3598.63778547 1658.22367812 -3585.82223627 1652.29507572 -3573.01330566 1646.35040283 C-3560.81185001 1640.68794814 -3548.60054967 1635.04774743 -3536.375 1629.4375 C-3523.78524875 1623.6596794 -3511.20148642 1617.86914257 -3498.625 1612.0625 C-3497.81822815 1611.69005157 -3497.0114563 1611.31760315 -3496.18023682 1610.93386841 C-3487.97800559 1607.14720749 -3479.77649465 1603.35898996 -3471.57574463 1599.56912231 C-3467.4673802 1597.67061141 -3463.35876629 1595.77264102 -3459.25 1593.875 C-3458.43869629 1593.50028564 -3457.62739258 1593.12557129 -3456.79150391 1592.73950195 C-3444.703346 1587.15766684 -3432.59887527 1581.61246361 -3420.48516846 1576.08633423 C-3407.63815485 1570.22385472 -3394.82242166 1564.29516176 -3382.01330566 1558.35040283 C-3369.81185001 1552.68794814 -3357.60054967 1547.04774743 -3345.375 1541.4375 C-3332.78524853 1535.6596793 -3320.20152766 1529.86905353 -3307.625 1524.0625 C-3306.81889282 1523.69038391 -3306.01278564 1523.31826782 -3305.18225098 1522.93487549 C-3296.96190625 1519.14015932 -3288.74238435 1515.34367087 -3280.52455139 1511.54351807 C-3276.39168321 1509.63249556 -3272.25843606 1507.72229387 -3268.125 1505.8125 C-3267.31346466 1505.43750366 -3266.50192932 1505.06250732 -3265.665802 1504.67614746 C-3253.80770468 1499.19856047 -3241.92488598 1493.7779257 -3230.0256958 1488.39028931 C-3219.30776285 1483.53473943 -3208.64400595 1478.57135845 -3197.99926758 1473.55764771 C-3188.05536824 1468.87608731 -3178.07575174 1464.28122642 -3168.0625 1459.75 C-3155.63685867 1454.12605463 -3143.24640168 1448.42978429 -3130.875 1442.6875 C-3130.01478241 1442.28828339 -3129.15456482 1441.88906677 -3128.26828003 1441.47775269 C-3124.77900426 1439.85835925 -3121.28978345 1438.23884754 -3117.80067444 1436.61909485 C-3108.58041548 1432.33947656 -3099.35410998 1428.07299353 -3090.125 1423.8125 C-3089.31760376 1423.43973938 -3088.51020752 1423.06697876 -3087.67834473 1422.68292236 C-3075.62738843 1417.12064097 -3063.56008903 1411.5948815 -3051.48461914 1406.08605957 C-3038.63778547 1400.22367812 -3025.82223627 1394.29507572 -3013.01330566 1388.35040283 C-3000.81185001 1382.68794814 -2988.60054967 1377.04774743 -2976.375 1371.4375 C-2963.78524875 1365.6596794 -2951.20148642 1359.86914257 -2938.625 1354.0625 C-2937.81822815 1353.69005157 -2937.0114563 1353.31760315 -2936.18023682 1352.93386841 C-2927.97800559 1349.14720749 -2919.77649465 1345.35898996 -2911.57574463 1341.56912231 C-2907.4673802 1339.67061141 -2903.35876629 1337.77264102 -2899.25 1335.875 C-2898.43869629 1335.50028564 -2897.62739258 1335.12557129 -2896.79150391 1334.73950195 C-2884.703346 1329.15766684 -2872.59887527 1323.61246361 -2860.48516846 1318.08633423 C-2847.63815485 1312.22385472 -2834.82242166 1306.29516176 -2822.01330566 1300.35040283 C-2809.81185001 1294.68794814 -2797.60054967 1289.04774743 -2785.375 1283.4375 C-2772.78524853 1277.6596793 -2760.20152766 1271.86905353 -2747.625 1266.0625 C-2746.81889282 1265.69038391 -2746.01278564 1265.31826782 -2745.18225098 1264.93487549 C-2736.96190625 1261.14015932 -2728.74238435 1257.34367087 -2720.52455139 1253.54351807 C-2716.39168321 1251.63249556 -2712.25843606 1249.72229387 -2708.125 1247.8125 C-2707.31346466 1247.43750366 -2706.50192932 1247.06250732 -2705.665802 1246.67614746 C-2693.80770468 1241.19856047 -2681.92488598 1235.7779257 -2670.0256958 1230.39028931 C-2659.30776285 1225.53473943 -2648.64400595 1220.57135845 -2637.99926758 1215.55764771 C-2628.05536824 1210.87608731 -2618.07575174 1206.28122642 -2608.0625 1201.75 C-2595.63685867 1196.12605463 -2583.24640168 1190.42978429 -2570.875 1184.6875 C-2570.01478241 1184.28828339 -2569.15456482 1183.88906677 -2568.26828003 1183.47775269 C-2564.77900426 1181.85835925 -2561.28978345 1180.23884754 -2557.80067444 1178.61909485 C-2548.58041548 1174.33947656 -2539.35410998 1170.07299353 -2530.125 1165.8125 C-2529.31760376 1165.43973938 -2528.51020752 1165.06697876 -2527.67834473 1164.68292236 C-2515.62738843 1159.12064097 -2503.56008903 1153.5948815 -2491.48461914 1148.08605957 C-2478.63778547 1142.22367812 -2465.82223627 1136.29507572 -2453.01330566 1130.35040283 C-2440.81185001 1124.68794814 -2428.60054967 1119.04774743 -2416.375 1113.4375 C-2403.78524875 1107.6596794 -2391.20148642 1101.86914257 -2378.625 1096.0625 C-2377.81822815 1095.69005157 -2377.0114563 1095.31760315 -2376.18023682 1094.93386841 C-2367.97800559 1091.14720749 -2359.77649465 1087.35898996 -2351.57574463 1083.56912231 C-2347.4673802 1081.67061141 -2343.35876629 1079.77264102 -2339.25 1077.875 C-2338.43869629 1077.50028564 -2337.62739258 1077.12557129 -2336.79150391 1076.73950195 C-2324.703346 1071.15766684 -2312.59887527 1065.61246361 -2300.48516846 1060.08633423 C-2287.63815485 1054.22385472 -2274.82242166 1048.29516176 -2262.01330566 1042.35040283 C-2249.81185001 1036.68794814 -2237.60054967 1031.04774743 -2225.375 1025.4375 C-2212.78524853 1019.6596793 -2200.20152766 1013.86905353 -2187.625 1008.0625 C-2186.81889282 1007.69038391 -2186.01278564 1007.31826782 -2185.18225098 1006.93487549 C-2176.96190625 1003.14015932 -2168.74238435 999.34367087 -2160.52455139 995.54351807 C-2156.39168321 993.63249556 -2152.25843606 991.72229387 -2148.125 989.8125 C-2147.31346466 989.43750366 -2146.50192932 989.06250732 -2145.665802 988.67614746 C-2133.80770468 983.19856047 -2121.92488598 977.7779257 -2110.0256958 972.39028931 C-2099.30776285 967.53473943 -2088.64400595 962.57135845 -2077.99926758 957.55764771 C-2068.05536824 952.87608731 -2058.07575174 948.28122642 -2048.0625 943.75 C-2035.63685867 938.12605463 -2023.24640168 932.42978429 -2010.875 926.6875 C-2010.01478241 926.28828339 -2009.15456482 925.88906677 -2008.26828003 925.47775269 C-2004.77900426 923.85835925 -2001.28978345 922.23884754 -1997.80067444 920.61909485 C-1988.58041548 916.33947656 -1979.35410998 912.07299353 -1970.125 907.8125 C-1969.31760376 907.43973938 -1968.51020752 907.06697876 -1967.67834473 906.68292236 C-1955.62738843 901.12064097 -1943.56008903 895.5948815 -1931.48461914 890.08605957 C-1918.63778547 884.22367812 -1905.82223627 878.29507572 -1893.01330566 872.35040283 C-1880.81185001 866.68794814 -1868.60054967 861.04774743 -1856.375 855.4375 C-1843.78524875 849.6596794 -1831.20148642 843.86914257 -1818.625 838.0625 C-1817.81822815 837.69005157 -1817.0114563 837.31760315 -1816.18023682 836.93386841 C-1807.97800559 833.14720749 -1799.77649465 829.35898996 -1791.57574463 825.56912231 C-1787.4673802 823.67061141 -1783.35876629 821.77264102 -1779.25 819.875 C-1778.43869629 819.50028564 -1777.62739258 819.12557129 -1776.79150391 818.73950195 C-1764.703346 813.15766684 -1752.59887527 807.61246361 -1740.48516846 802.08633423 C-1727.63815485 796.22385472 -1714.82242166 790.29516176 -1702.01330566 784.35040283 C-1689.81185001 778.68794814 -1677.60054967 773.04774743 -1665.375 767.4375 C-1652.78524853 761.6596793 -1640.20152766 755.86905353 -1627.625 750.0625 C-1626.81889282 749.69038391 -1626.01278564 749.31826782 -1625.18225098 748.93487549 C-1616.96190625 745.14015932 -1608.74238435 741.34367087 -1600.52455139 737.54351807 C-1596.39168321 735.63249556 -1592.25843606 733.72229387 -1588.125 731.8125 C-1587.31346466 731.43750366 -1586.50192932 731.06250732 -1585.665802 730.67614746 C-1573.80770468 725.19856047 -1561.92488598 719.7779257 -1550.0256958 714.39028931 C-1539.30776285 709.53473943 -1528.64400595 704.57135845 -1517.99926758 699.55764771 C-1508.05536824 694.87608731 -1498.07575174 690.28122642 -1488.0625 685.75 C-1475.63685867 680.12605463 -1463.24640168 674.42978429 -1450.875 668.6875 C-1450.01478241 668.28828339 -1449.15456482 667.88906677 -1448.26828003 667.47775269 C-1444.77900426 665.85835925 -1441.28978345 664.23884754 -1437.80067444 662.61909485 C-1428.58041548 658.33947656 -1419.35410998 654.07299353 -1410.125 649.8125 C-1409.31760376 649.43973938 -1408.51020752 649.06697876 -1407.67834473 648.68292236 C-1395.62738843 643.12064097 -1383.56008903 637.5948815 -1371.48461914 632.08605957 C-1358.63778547 626.22367812 -1345.82223627 620.29507572 -1333.01330566 614.35040283 C-1320.81185001 608.68794814 -1308.60054967 603.04774743 -1296.375 597.4375 C-1283.78524875 591.6596794 -1271.20148642 585.86914257 -1258.625 580.0625 C-1257.81822815 579.69005157 -1257.0114563 579.31760315 -1256.18023682 578.93386841 C-1247.97800559 575.14720749 -1239.77649465 571.35898996 -1231.57574463 567.56912231 C-1227.4673802 565.67061141 -1223.35876629 563.77264102 -1219.25 561.875 C-1218.43869629 561.50028564 -1217.62739258 561.12557129 -1216.79150391 560.73950195 C-1204.703346 555.15766684 -1192.59887527 549.61246361 -1180.48516846 544.08633423 C-1167.63815485 538.22385472 -1154.82242166 532.29516176 -1142.01330566 526.35040283 C-1129.81185001 520.68794814 -1117.60054967 515.04774743 -1105.375 509.4375 C-1092.78524853 503.6596793 -1080.20152766 497.86905353 -1067.625 492.0625 C-1066.81889282 491.69038391 -1066.01278564 491.31826782 -1065.18225098 490.93487549 C-1056.96190625 487.14015932 -1048.74238435 483.34367087 -1040.52455139 479.54351807 C-1036.39168321 477.63249556 -1032.25843606 475.72229387 -1028.125 473.8125 C-1027.31346466 473.43750366 -1026.50192932 473.06250732 -1025.665802 472.67614746 C-1013.80770468 467.19856047 -1001.92488598 461.7779257 -990.0256958 456.39028931 C-979.30776285 451.53473943 -968.64400595 446.57135845 -957.99926758 441.55764771 C-948.05536824 436.87608731 -938.07575174 432.28122642 -928.0625 427.75 C-915.63685867 422.12605463 -903.24640168 416.42978429 -890.875 410.6875 C-890.01478241 410.28828339 -889.15456482 409.88906677 -888.26828003 409.47775269 C-884.77900426 407.85835925 -881.28978345 406.23884754 -877.80067444 404.61909485 C-868.58041548 400.33947656 -859.35410998 396.07299353 -850.125 391.8125 C-849.31760376 391.43973938 -848.51020752 391.06697876 -847.67834473 390.68292236 C-835.62738843 385.12064097 -823.56008903 379.5948815 -811.48461914 374.08605957 C-798.63778547 368.22367812 -785.82223627 362.29507572 -773.01330566 356.35040283 C-760.81185001 350.68794814 -748.60054967 345.04774743 -736.375 339.4375 C-723.78524875 333.6596794 -711.20148642 327.86914257 -698.625 322.0625 C-697.81822815 321.69005157 -697.0114563 321.31760315 -696.18023682 320.93386841 C-687.97800559 317.14720749 -679.77649465 313.35898996 -671.57574463 309.56912231 C-667.4673802 307.67061141 -663.35876629 305.77264102 -659.25 303.875 C-658.43869629 303.50028564 -657.62739258 303.12557129 -656.79150391 302.73950195 C-644.703346 297.15766684 -632.59887527 291.61246361 -620.48516846 286.08633423 C-607.63815485 280.22385472 -594.82242166 274.29516176 -582.01330566 268.35040283 C-569.81185001 262.68794814 -557.60054967 257.04774743 -545.375 251.4375 C-532.78524853 245.6596793 -520.20152766 239.86905353 -507.625 234.0625 C-506.81889282 233.69038391 -506.01278564 233.31826782 -505.18225098 232.93487549 C-496.96190625 229.14015932 -488.74238435 225.34367087 -480.52455139 221.54351807 C-476.39168321 219.63249556 -472.25843606 217.72229387 -468.125 215.8125 C-466.90769699 215.25000549 -466.90769699 215.25000549 -465.665802 214.67614746 C-453.80770468 209.19856047 -441.92488598 203.7779257 -430.0256958 198.39028931 C-419.30776285 193.53473943 -408.64400595 188.57135845 -397.99926758 183.55764771 C-388.05536824 178.87608731 -378.07575174 174.28122642 -368.0625 169.75 C-355.63685867 164.12605463 -343.24640168 158.42978429 -330.875 152.6875 C-330.01478241 152.28828339 -329.15456482 151.88906677 -328.26828003 151.47775269 C-324.77900426 149.85835925 -321.28978345 148.23884754 -317.80067444 146.61909485 C-308.58041548 142.33947656 -299.35410998 138.07299353 -290.125 133.8125 C-289.31760376 133.43973938 -288.51020752 133.06697876 -287.67834473 132.68292236 C-275.62738843 127.12064097 -263.56008903 121.5948815 -251.48461914 116.08605957 C-238.63778547 110.22367812 -225.82223627 104.29507572 -213.01330566 98.35040283 C-200.81185001 92.68794814 -188.60054967 87.04774743 -176.375 81.4375 C-163.78524875 75.6596794 -151.20148642 69.86914257 -138.625 64.0625 C-137.81822815 63.69005157 -137.0114563 63.31760315 -136.18023682 62.93386841 C-127.97801591 59.14721225 -119.7765163 55.3589973 -111.57577515 51.56913757 C-95.94345536 44.34529944 -80.30796836 37.12916498 -64.64227295 29.97793579 C-51.83880662 24.133224 -39.0395517 18.27931827 -26.25366211 12.39624023 C-24.5163393 11.59736541 -22.77855397 10.7994956 -21.0402832 10.00268555 C-18.62192965 8.89387244 -16.20529959 7.78138481 -13.7890625 6.66796875 C-13.07299835 6.34056198 -12.3569342 6.01315521 -11.61917114 5.67582703 C-8.42355265 4.19883321 -3.42196633 0 0 0 Z " fill="#D97757" transform="translate(4488,2315)"/>
<path d="M0 0 C0 63.69 0 127.38 0 193 C-18.37141736 202.18570868 -18.37141736 202.18570868 -25.6953125 205.26171875 C-26.52233673 205.61415649 -27.34936096 205.96659424 -28.20144653 206.32971191 C-30.8407503 207.4534612 -33.48284969 208.57046242 -36.125 209.6875 C-38.95273147 210.88980053 -41.77970919 212.09386225 -44.60668945 213.29792786 C-46.48062283 214.09587496 -48.35480703 214.89323328 -50.22924805 215.68998718 C-57.58628864 218.81790855 -64.92158835 221.99303676 -72.25 225.1875 C-84.83104248 230.66032874 -97.45542872 236.02966179 -110.08224487 241.39590454 C-129.98427448 249.85419296 -149.85653006 258.37633755 -169.6875 267 C-170.8067688 267.48669159 -171.9260376 267.97338318 -173.07922363 268.474823 C-174.18906616 268.95742584 -175.29890869 269.44002869 -176.44238281 269.93725586 C-178.62563664 270.88658911 -180.8089046 271.83588987 -182.9921875 272.78515625 C-184.04249146 273.24182175 -185.09279541 273.69848724 -186.17492676 274.16899109 C-194.87664597 277.95050969 -203.58948278 281.70539945 -212.3125 285.4375 C-212.97633698 285.72157715 -213.64017395 286.0056543 -214.3241272 286.29833984 C-217.8822281 287.82066832 -221.4407709 289.34196111 -224.99951172 290.86279297 C-235.62645377 295.40437142 -246.25132825 299.95077729 -256.875 304.5 C-258.66917862 305.26821075 -258.66917862 305.26821075 -260.49960327 306.05194092 C-278.99580384 313.97372208 -297.46103268 321.96489147 -315.91156006 329.99243164 C-333.69061324 337.72512123 -351.51424649 345.34847598 -369.35961914 352.92669678 C-388.76195848 361.16827656 -408.11415125 369.52142786 -427.44140625 377.9375 C-442.93607866 384.68351276 -458.46145159 391.35571517 -474 398 C-501.67176013 409.83686328 -529.33609643 421.68726766 -556.9375 433.6875 C-573.71125348 440.97967024 -590.49840194 448.2388041 -607.3125 455.4375 C-608.8038295 456.07602402 -608.8038295 456.07602402 -610.32528687 456.72744751 C-617.5494637 459.81999971 -624.7746931 462.9100892 -632 466 C-641.25082557 469.95640575 -650.50097563 473.9143852 -659.75 477.875 C-660.91964294 478.37584106 -662.08928589 478.87668213 -663.29437256 479.3927002 C-680.53014233 486.7753465 -697.7418052 494.21202604 -714.9375 501.6875 C-731.71131971 508.97951925 -748.49840096 516.23880369 -765.3125 523.4375 C-766.8038295 524.07602402 -766.8038295 524.07602402 -768.32528687 524.72744751 C-775.5494637 527.81999971 -782.7746931 530.9100892 -790 534 C-799.2508256 537.95640576 -808.50093904 541.91447059 -817.75 545.875 C-819.50695694 546.62725861 -819.50695694 546.62725861 -821.29940796 547.39471436 C-839.53032769 555.20275043 -857.72951712 563.08181829 -875.91540527 570.99407959 C-893.69317436 578.72622536 -911.51552997 586.34902102 -929.35961914 593.92669678 C-948.76195848 602.16827656 -968.11415125 610.52142786 -987.44140625 618.9375 C-1002.93607866 625.68351276 -1018.46145159 632.35571517 -1034 639 C-1061.67176013 650.83686328 -1089.33609643 662.68726766 -1116.9375 674.6875 C-1133.71125348 681.97967024 -1150.49840194 689.2388041 -1167.3125 696.4375 C-1168.8038295 697.07602402 -1168.8038295 697.07602402 -1170.32528687 697.72744751 C-1177.5494637 700.81999971 -1184.7746931 703.9100892 -1192 707 C-1201.25082557 710.95640575 -1210.50097563 714.9143852 -1219.75 718.875 C-1220.91964294 719.37584106 -1222.08928589 719.87668213 -1223.29437256 720.3927002 C-1240.53014233 727.7753465 -1257.7418052 735.21202604 -1274.9375 742.6875 C-1291.71131971 749.97951925 -1308.49840096 757.23880369 -1325.3125 764.4375 C-1326.8038295 765.07602402 -1326.8038295 765.07602402 -1328.32528687 765.72744751 C-1335.5494637 768.81999971 -1342.7746931 771.9100892 -1350 775 C-1359.2508256 778.95640576 -1368.50093904 782.91447059 -1377.75 786.875 C-1379.50695694 787.62725861 -1379.50695694 787.62725861 -1381.29940796 788.39471436 C-1399.53032769 796.20275043 -1417.72951712 804.08181829 -1435.91540527 811.99407959 C-1453.69317436 819.72622536 -1471.51552997 827.34902102 -1489.35961914 834.92669678 C-1508.76195848 843.16827656 -1528.11415125 851.52142786 -1547.44140625 859.9375 C-1562.93607866 866.68351276 -1578.46145159 873.35571517 -1594 880 C-1621.67176013 891.83686328 -1649.33609643 903.68726766 -1676.9375 915.6875 C-1693.71125348 922.97967024 -1710.49840194 930.2388041 -1727.3125 937.4375 C-1728.8038295 938.07602402 -1728.8038295 938.07602402 -1730.32528687 938.72744751 C-1737.5494637 941.81999971 -1744.7746931 944.9100892 -1752 948 C-1761.25082557 951.95640575 -1770.50097563 955.9143852 -1779.75 959.875 C-1780.91964294 960.37584106 -1782.08928589 960.87668213 -1783.29437256 961.3927002 C-1800.53014233 968.7753465 -1817.7418052 976.21202604 -1834.9375 983.6875 C-1851.71131971 990.97951925 -1868.49840096 998.23880369 -1885.3125 1005.4375 C-1886.8038295 1006.07602402 -1886.8038295 1006.07602402 -1888.32528687 1006.72744751 C-1895.5494637 1009.81999971 -1902.7746931 1012.9100892 -1910 1016 C-1919.2508256 1019.95640576 -1928.50093904 1023.91447059 -1937.75 1027.875 C-1938.92130463 1028.37650574 -1940.09260925 1028.87801147 -1941.29940796 1029.39471436 C-1959.53032769 1037.20275043 -1977.72951712 1045.08181829 -1995.91540527 1052.99407959 C-2013.69317436 1060.72622536 -2031.51552997 1068.34902102 -2049.35961914 1075.92669678 C-2068.76195848 1084.16827656 -2088.11415125 1092.52142786 -2107.44140625 1100.9375 C-2122.93607866 1107.68351276 -2138.46145159 1114.35571517 -2154 1121 C-2181.67176013 1132.83686328 -2209.33609643 1144.68726766 -2236.9375 1156.6875 C-2253.71125348 1163.97967024 -2270.49840194 1171.2388041 -2287.3125 1178.4375 C-2288.30671967 1178.86318268 -2289.30093933 1179.28886536 -2290.32528687 1179.72744751 C-2297.5494637 1182.81999971 -2304.7746931 1185.9100892 -2312 1189 C-2321.25082557 1192.95640575 -2330.50097563 1196.9143852 -2339.75 1200.875 C-2340.91964294 1201.37584106 -2342.08928589 1201.87668213 -2343.29437256 1202.3927002 C-2360.53014233 1209.7753465 -2377.7418052 1217.21202604 -2394.9375 1224.6875 C-2411.71131971 1231.97951925 -2428.49840096 1239.23880369 -2445.3125 1246.4375 C-2446.30671967 1246.86318268 -2447.30093933 1247.28886536 -2448.32528687 1247.72744751 C-2455.5494637 1250.81999971 -2462.7746931 1253.9100892 -2470 1257 C-2479.2508256 1260.95640576 -2488.50093904 1264.91447059 -2497.75 1268.875 C-2498.92130463 1269.37650574 -2500.09260925 1269.87801147 -2501.29940796 1270.39471436 C-2519.53032769 1278.20275043 -2537.72951712 1286.08181829 -2555.91540527 1293.99407959 C-2573.69317436 1301.72622536 -2591.51552997 1309.34902102 -2609.35961914 1316.92669678 C-2628.76195848 1325.16827656 -2648.11415125 1333.52142786 -2667.44140625 1341.9375 C-2682.93607866 1348.68351276 -2698.46145159 1355.35571517 -2714 1362 C-2741.67176013 1373.83686328 -2769.33609643 1385.68726766 -2796.9375 1397.6875 C-2813.71125348 1404.97967024 -2830.49840194 1412.2388041 -2847.3125 1419.4375 C-2848.30671967 1419.86318268 -2849.30093933 1420.28886536 -2850.32528687 1420.72744751 C-2857.5494637 1423.81999971 -2864.7746931 1426.9100892 -2872 1430 C-2881.25082557 1433.95640575 -2890.50097563 1437.9143852 -2899.75 1441.875 C-2900.91964294 1442.37584106 -2902.08928589 1442.87668213 -2903.29437256 1443.3927002 C-2920.53014233 1450.7753465 -2937.7418052 1458.21202604 -2954.9375 1465.6875 C-2971.71131971 1472.97951925 -2988.49840096 1480.23880369 -3005.3125 1487.4375 C-3006.30671967 1487.86318268 -3007.30093933 1488.28886536 -3008.32528687 1488.72744751 C-3015.5494637 1491.81999971 -3022.7746931 1494.9100892 -3030 1498 C-3039.2508256 1501.95640576 -3048.50093904 1505.91447059 -3057.75 1509.875 C-3058.92130463 1510.37650574 -3060.09260925 1510.87801147 -3061.29940796 1511.39471436 C-3079.53032769 1519.20275043 -3097.72951712 1527.08181829 -3115.91540527 1534.99407959 C-3133.69317436 1542.72622536 -3151.51552997 1550.34902102 -3169.35961914 1557.92669678 C-3188.76195848 1566.16827656 -3208.11415125 1574.52142786 -3227.44140625 1582.9375 C-3242.93607866 1589.68351276 -3258.46145159 1596.35571517 -3274 1603 C-3301.67176013 1614.83686328 -3329.33609643 1626.68726766 -3356.9375 1638.6875 C-3373.71125348 1645.97967024 -3390.49840194 1653.2388041 -3407.3125 1660.4375 C-3408.30671967 1660.86318268 -3409.30093933 1661.28886536 -3410.32528687 1661.72744751 C-3417.5494637 1664.81999971 -3424.7746931 1667.9100892 -3432 1671 C-3441.25082557 1674.95640575 -3450.50097563 1678.9143852 -3459.75 1682.875 C-3460.91964294 1683.37584106 -3462.08928589 1683.87668213 -3463.29437256 1684.3927002 C-3480.53014233 1691.7753465 -3497.7418052 1699.21202604 -3514.9375 1706.6875 C-3531.71131971 1713.97951925 -3548.49840096 1721.23880369 -3565.3125 1728.4375 C-3566.30671967 1728.86318268 -3567.30093933 1729.28886536 -3568.32528687 1729.72744751 C-3575.5494637 1732.81999971 -3582.7746931 1735.9100892 -3590 1739 C-3599.2508256 1742.95640576 -3608.50093904 1746.91447059 -3617.75 1750.875 C-3618.92130463 1751.37650574 -3620.09260925 1751.87801147 -3621.29940796 1752.39471436 C-3639.53032769 1760.20275043 -3657.72951712 1768.08181829 -3675.91540527 1775.99407959 C-3693.69317436 1783.72622536 -3711.51552997 1791.34902102 -3729.35961914 1798.92669678 C-3748.76195848 1807.16827656 -3768.11415125 1815.52142786 -3787.44140625 1823.9375 C-3802.93607866 1830.68351276 -3818.46145159 1837.35571517 -3834 1844 C-3861.67176013 1855.83686328 -3889.33609643 1867.68726766 -3916.9375 1879.6875 C-3933.71125348 1886.97967024 -3950.49840194 1894.2388041 -3967.3125 1901.4375 C-3968.30671967 1901.86318268 -3969.30093933 1902.28886536 -3970.32528687 1902.72744751 C-3977.5494637 1905.81999971 -3984.7746931 1908.9100892 -3992 1912 C-4001.25082557 1915.95640575 -4010.50097563 1919.9143852 -4019.75 1923.875 C-4020.91964294 1924.37584106 -4022.08928589 1924.87668213 -4023.29437256 1925.3927002 C-4040.53014233 1932.7753465 -4057.7418052 1940.21202604 -4074.9375 1947.6875 C-4091.71131971 1954.97951925 -4108.49840096 1962.23880369 -4125.3125 1969.4375 C-4126.30671967 1969.86318268 -4127.30093933 1970.28886536 -4128.32528687 1970.72744751 C-4135.5494637 1973.81999971 -4142.7746931 1976.9100892 -4150 1980 C-4159.2508256 1983.95640576 -4168.50093904 1987.91447059 -4177.75 1991.875 C-4178.92130463 1992.37650574 -4180.09260925 1992.87801147 -4181.29940796 1993.39471436 C-4199.53032769 2001.20275043 -4217.72951712 2009.08181829 -4235.91540527 2016.99407959 C-4253.69317436 2024.72622536 -4271.51552997 2032.34902102 -4289.35961914 2039.92669678 C-4308.76195848 2048.16827656 -4328.11415125 2056.52142786 -4347.44140625 2064.9375 C-4361.76336635 2071.17293005 -4376.11058771 2077.34724367 -4390.47229004 2083.49057007 C-4396.23397995 2085.95587116 -4401.99387699 2088.42535324 -4407.75390625 2090.89453125 C-4414.18215792 2093.64989803 -4420.61047372 2096.40511248 -4427.03984356 2099.15786934 C-4438.46636987 2104.05023294 -4449.89104503 2108.94626802 -4461.296875 2113.88671875 C-4463.72088315 2114.93442609 -4466.14505956 2115.98174296 -4468.56930542 2117.02890015 C-4470.76023656 2117.97737467 -4472.94860597 2118.93159111 -4475.13696289 2119.88598633 C-4476.43102043 2120.4451296 -4477.72520108 2121.0039881 -4479.01953125 2121.5625 C-4480.11370361 2122.03816406 -4481.20787598 2122.51382813 -4482.33520508 2123.00390625 C-4485 2124 -4485 2124 -4488 2124 C-4488 2106.51 -4488 2089.02 -4488 2071 C-4471.87301248 2063.40657538 -4455.74108696 2055.84519689 -4439.5 2048.5 C-4428.62694335 2043.58225844 -4417.79521976 2038.58633667 -4407 2033.5 C-4395.51861962 2028.09036802 -4383.99130765 2022.79288827 -4372.42724609 2017.5625 C-4362.24612735 2012.95544179 -4352.10903904 2008.26303189 -4342 2003.5 C-4330.51861962 1998.09036802 -4318.99130765 1992.79288827 -4307.42724609 1987.5625 C-4297.24612735 1982.95544179 -4287.10903904 1978.26303189 -4277 1973.5 C-4265.51861962 1968.09036802 -4253.99130765 1962.79288827 -4242.42724609 1957.5625 C-4232.24612735 1952.95544179 -4222.10903904 1948.26303189 -4212 1943.5 C-4200.51861962 1938.09036802 -4188.99130765 1932.79288827 -4177.42724609 1927.5625 C-4167.24612735 1922.95544179 -4157.10903904 1918.26303189 -4147 1913.5 C-4135.51861962 1908.09036802 -4123.99130765 1902.79288827 -4112.42724609 1897.5625 C-4102.24612735 1892.95544179 -4092.10903904 1888.26303189 -4082 1883.5 C-4070.51861962 1878.09036802 -4058.99130765 1872.79288827 -4047.42724609 1867.5625 C-4037.24612735 1862.95544179 -4027.10903904 1858.26303189 -4017 1853.5 C-4005.51861962 1848.09036802 -3993.99130765 1842.79288827 -3982.42724609 1837.5625 C-3972.24612735 1832.95544179 -3962.10903904 1828.26303189 -3952 1823.5 C-3940.51861962 1818.09036802 -3928.99130765 1812.79288827 -3917.42724609 1807.5625 C-3907.24612735 1802.95544179 -3897.10903904 1798.26303189 -3887 1793.5 C-3875.51861962 1788.09036802 -3863.99130765 1782.79288827 -3852.42724609 1777.5625 C-3842.24612735 1772.95544179 -3832.10903904 1768.26303189 -3822 1763.5 C-3810.51861962 1758.09036802 -3798.99130765 1752.79288827 -3787.42724609 1747.5625 C-3777.24612735 1742.95544179 -3767.10903904 1738.26303189 -3757 1733.5 C-3745.51861962 1728.09036802 -3733.99130765 1722.79288827 -3722.42724609 1717.5625 C-3712.24612735 1712.95544179 -3702.10903904 1708.26303189 -3692 1703.5 C-3680.51861962 1698.09036802 -3668.99130765 1692.79288827 -3657.42724609 1687.5625 C-3647.24612735 1682.95544179 -3637.10903904 1678.26303189 -3627 1673.5 C-3615.51861962 1668.09036802 -3603.99130765 1662.79288827 -3592.42724609 1657.5625 C-3582.24612735 1652.95544179 -3572.10903904 1648.26303189 -3562 1643.5 C-3550.51861962 1638.09036802 -3538.99130765 1632.79288827 -3527.42724609 1627.5625 C-3517.24612735 1622.95544179 -3507.10903904 1618.26303189 -3497 1613.5 C-3485.51861962 1608.09036802 -3473.99130765 1602.79288827 -3462.42724609 1597.5625 C-3452.24612735 1592.95544179 -3442.10903904 1588.26303189 -3432 1583.5 C-3420.51861962 1578.09036802 -3408.99130765 1572.79288827 -3397.42724609 1567.5625 C-3387.24612735 1562.95544179 -3377.10903904 1558.26303189 -3367 1553.5 C-3355.51861962 1548.09036802 -3343.99130765 1542.79288827 -3332.42724609 1537.5625 C-3322.24612735 1532.95544179 -3312.10903904 1528.26303189 -3302 1523.5 C-3290.51861962 1518.09036802 -3278.99130765 1512.79288827 -3267.42724609 1507.5625 C-3257.24612735 1502.95544179 -3247.10903904 1498.26303189 -3237 1493.5 C-3225.51861962 1488.09036802 -3213.99130765 1482.79288827 -3202.42724609 1477.5625 C-3192.24612735 1472.95544179 -3182.10903904 1468.26303189 -3172 1463.5 C-3160.51861962 1458.09036802 -3148.99130765 1452.79288827 -3137.42724609 1447.5625 C-3127.24612735 1442.95544179 -3117.10903904 1438.26303189 -3107 1433.5 C-3095.51861962 1428.09036802 -3083.99130765 1422.79288827 -3072.42724609 1417.5625 C-3062.24612735 1412.95544179 -3052.10903904 1408.26303189 -3042 1403.5 C-3030.51861962 1398.09036802 -3018.99130765 1392.79288827 -3007.42724609 1387.5625 C-2997.24612735 1382.95544179 -2987.10903904 1378.26303189 -2977 1373.5 C-2965.51861962 1368.09036802 -2953.99130765 1362.79288827 -2942.42724609 1357.5625 C-2932.24612735 1352.95544179 -2922.10903904 1348.26303189 -2912 1343.5 C-2900.51861962 1338.09036802 -2888.99130765 1332.79288827 -2877.42724609 1327.5625 C-2867.24612735 1322.95544179 -2857.10903904 1318.26303189 -2847 1313.5 C-2835.51861962 1308.09036802 -2823.99130765 1302.79288827 -2812.42724609 1297.5625 C-2802.24612735 1292.95544179 -2792.10903904 1288.26303189 -2782 1283.5 C-2770.51861962 1278.09036802 -2758.99130765 1272.79288827 -2747.42724609 1267.5625 C-2737.24612735 1262.95544179 -2727.10903904 1258.26303189 -2717 1253.5 C-2705.51861962 1248.09036802 -2693.99130765 1242.79288827 -2682.42724609 1237.5625 C-2672.24612735 1232.95544179 -2662.10903904 1228.26303189 -2652 1223.5 C-2640.51861962 1218.09036802 -2628.99130765 1212.79288827 -2617.42724609 1207.5625 C-2607.24612735 1202.95544179 -2597.10903904 1198.26303189 -2587 1193.5 C-2575.51861962 1188.09036802 -2563.99130765 1182.79288827 -2552.42724609 1177.5625 C-2542.24612735 1172.95544179 -2532.10903904 1168.26303189 -2522 1163.5 C-2510.51861962 1158.09036802 -2498.99130765 1152.79288827 -2487.42724609 1147.5625 C-2477.24612735 1142.95544179 -2467.10903904 1138.26303189 -2457 1133.5 C-2445.51861962 1128.09036802 -2433.99130765 1122.79288827 -2422.42724609 1117.5625 C-2412.24612735 1112.95544179 -2402.10903904 1108.26303189 -2392 1103.5 C-2380.51861962 1098.09036802 -2368.99130765 1092.79288827 -2357.42724609 1087.5625 C-2347.24612735 1082.95544179 -2337.10903904 1078.26303189 -2327 1073.5 C-2315.51861962 1068.09036802 -2303.99130765 1062.79288827 -2292.42724609 1057.5625 C-2282.24612735 1052.95544179 -2272.10903904 1048.26303189 -2262 1043.5 C-2250.51861962 1038.09036802 -2238.99130765 1032.79288827 -2227.42724609 1027.5625 C-2217.24612735 1022.95544179 -2207.10903904 1018.26303189 -2197 1013.5 C-2185.51861962 1008.09036802 -2173.99130765 1002.79288827 -2162.42724609 997.5625 C-2152.24612735 992.95544179 -2142.10903904 988.26303189 -2132 983.5 C-2120.51861962 978.09036802 -2108.99130765 972.79288827 -2097.42724609 967.5625 C-2087.24612735 962.95544179 -2077.10903904 958.26303189 -2067 953.5 C-2055.51861962 948.09036802 -2043.99130765 942.79288827 -2032.42724609 937.5625 C-2022.24612735 932.95544179 -2012.10903904 928.26303189 -2002 923.5 C-1990.51861962 918.09036802 -1978.99130765 912.79288827 -1967.42724609 907.5625 C-1957.24612735 902.95544179 -1947.10903904 898.26303189 -1937 893.5 C-1925.51861962 888.09036802 -1913.99130765 882.79288827 -1902.42724609 877.5625 C-1892.24612735 872.95544179 -1882.10903904 868.26303189 -1872 863.5 C-1860.51861962 858.09036802 -1848.99130765 852.79288827 -1837.42724609 847.5625 C-1827.24612735 842.95544179 -1817.10903904 838.26303189 -1807 833.5 C-1795.51861962 828.09036802 -1783.99130765 822.79288827 -1772.42724609 817.5625 C-1762.24612735 812.95544179 -1752.10903904 808.26303189 -1742 803.5 C-1730.51861962 798.09036802 -1718.99130765 792.79288827 -1707.42724609 787.5625 C-1697.24612735 782.95544179 -1687.10903904 778.26303189 -1677 773.5 C-1665.51861962 768.09036802 -1653.99130765 762.79288827 -1642.42724609 757.5625 C-1632.24612735 752.95544179 -1622.10903904 748.26303189 -1612 743.5 C-1600.51861962 738.09036802 -1588.99130765 732.79288827 -1577.42724609 727.5625 C-1567.24612735 722.95544179 -1557.10903904 718.26303189 -1547 713.5 C-1535.51861962 708.09036802 -1523.99130765 702.79288827 -1512.42724609 697.5625 C-1502.24612735 692.95544179 -1492.10903904 688.26303189 -1482 683.5 C-1470.51861962 678.09036802 -1458.99130765 672.79288827 -1447.42724609 667.5625 C-1437.24612735 662.95544179 -1427.10903904 658.26303189 -1417 653.5 C-1405.51861962 648.09036802 -1393.99130765 642.79288827 -1382.42724609 637.5625 C-1372.24612735 632.95544179 -1362.10903904 628.26303189 -1352 623.5 C-1340.51861962 618.09036802 -1328.99130765 612.79288827 -1317.42724609 607.5625 C-1307.24612735 602.95544179 -1297.10903904 598.26303189 -1287 593.5 C-1275.51861962 588.09036802 -1263.99130765 582.79288827 -1252.42724609 577.5625 C-1242.24612735 572.95544179 -1232.10903904 568.26303189 -1222 563.5 C-1210.51861962 558.09036802 -1198.99130765 552.79288827 -1187.42724609 547.5625 C-1177.24612735 542.95544179 -1167.10903904 538.26303189 -1157 533.5 C-1145.51861962 528.09036802 -1133.99130765 522.79288827 -1122.42724609 517.5625 C-1112.24612735 512.95544179 -1102.10903904 508.26303189 -1092 503.5 C-1080.51861962 498.09036802 -1068.99130765 492.79288827 -1057.42724609 487.5625 C-1047.24612735 482.95544179 -1037.10903904 478.26303189 -1027 473.5 C-1015.51861962 468.09036802 -1003.99130765 462.79288827 -992.42724609 457.5625 C-982.24612735 452.95544179 -972.10903904 448.26303189 -962 443.5 C-950.51861962 438.09036802 -938.99130765 432.79288827 -927.42724609 427.5625 C-917.24612735 422.95544179 -907.10903904 418.26303189 -897 413.5 C-885.51861962 408.09036802 -873.99130765 402.79288827 -862.42724609 397.5625 C-852.24612735 392.95544179 -842.10903904 388.26303189 -832 383.5 C-820.51861962 378.09036802 -808.99130765 372.79288827 -797.42724609 367.5625 C-787.24612735 362.95544179 -777.10903904 358.26303189 -767 353.5 C-755.51861962 348.09036802 -743.99130765 342.79288827 -732.42724609 337.5625 C-722.24612735 332.95544179 -712.10903904 328.26303189 -702 323.5 C-690.51861962 318.09036802 -678.99130765 312.79288827 -667.42724609 307.5625 C-657.24612735 302.95544179 -647.10903904 298.26303189 -637 293.5 C-625.51861962 288.09036802 -613.99130765 282.79288827 -602.42724609 277.5625 C-592.24612735 272.95544179 -582.10903904 268.26303189 -572 263.5 C-560.51861962 258.09036802 -548.99130765 252.79288827 -537.42724609 247.5625 C-527.24612735 242.95544179 -517.10903904 238.26303189 -507 233.5 C-495.51861962 228.09036802 -483.99130765 222.79288827 -472.42724609 217.5625 C-462.24612735 212.95544179 -452.10903904 208.26303189 -442 203.5 C-430.51861962 198.09036802 -418.99130765 192.79288827 -407.42724609 187.5625 C-397.24612735 182.95544179 -387.10903904 178.26303189 -377 173.5 C-365.51861962 168.09036802 -353.99130765 162.79288827 -342.42724609 157.5625 C-332.24612735 152.95544179 -322.10903904 148.26303189 -312 143.5 C-300.51861962 138.09036802 -288.99130765 132.79288827 -277.42724609 127.5625 C-267.24612735 122.95544179 -257.10903904 118.26303189 -247 113.5 C-235.51861962 108.09036802 -223.99130765 102.79288827 -212.42724609 97.5625 C-202.24612735 92.95544179 -192.10903904 88.26303189 -182 83.5 C-170.51861962 78.09036802 -158.99130765 72.79288827 -147.42724609 67.5625 C-137.24612735 62.95544179 -127.10903904 58.26303189 -117 53.5 C-105.51861962 48.09036802 -93.99130765 42.79288827 -82.42724609 37.5625 C-71.58812303 32.65768824 -60.80251371 27.64805264 -50.04046631 22.57659912 C-37.83637808 16.82832154 -25.57074617 11.22127455 -13.28125 5.65820312 C-12.6059726 5.35252411 -11.93069519 5.04684509 -11.23495483 4.73190308 C-9.40647959 3.90468313 -7.57752373 3.07852575 -5.74853516 2.25244141 C-0.80545809 0 -0.80545809 0 0 0 Z " fill="#D97757" transform="translate(4488,1088)"/>
</svg>
